<svg width="132" height="188" viewBox="0 0 132 188" fill="none" xmlns="http://www.w3.org/2000/svg">
<path d="M2.67233 0.386733C0.895326 1.83586 2.82952 4.33745 4.07345 5.42311C6.43301 7.48517 8.91175 9.41295 10.9049 11.8532C12.898 14.2935 14.22 17.2432 14.2081 20.4891C14.1872 23.8915 13.1776 27.273 12.3917 30.5512C9.36026 43.188 5.55138 55.9674 5.87554 69.0886C5.9424 72.3122 6.30411 75.5231 6.95614 78.6809C7.71924 82.0026 8.68385 85.2746 9.84461 88.479C11.952 94.6637 14.2949 101.147 13.5415 107.794C13.154 111.174 11.8804 114.32 10.409 117.367C8.98405 120.329 7.48499 123.26 6.22782 126.285C3.62368 132.43 1.53675 138.776 -0.410089 145.162C-2.3702 151.61 -4.17487 158.117 -6.21045 164.547C-7.20314 167.683 -8.30984 170.779 -9.35057 173.884C-10.3274 176.824 -11.1958 179.833 -11.4768 182.927C-11.6235 184.502 -11.5899 186.088 -11.3767 187.656C-11.3549 187.761 -10.9873 187.714 -11.0083 187.613C-11.9092 181.046 -9.2612 174.767 -7.20779 168.677C-5.07086 162.335 -3.24029 155.899 -1.34948 149.48C0.538441 143.156 2.46463 136.816 4.83168 130.638C6.02154 127.525 7.31894 124.458 8.76455 121.45C10.1603 118.547 11.7194 115.705 12.7678 112.655C14.9442 106.358 13.8975 99.9419 11.9579 93.7298C9.99269 87.3948 7.48231 81.2674 6.64759 74.637C4.98912 61.4835 8.35283 48.3586 11.4969 35.6833C12.2872 32.4986 13.075 29.2841 13.7832 26.0672C14.464 22.9731 15.0041 19.7459 14.0141 16.6517C13.1162 13.8555 11.2166 11.5204 9.13332 9.49907C8.05914 8.44988 6.92031 7.47073 5.77215 6.5011C4.76465 5.64571 3.70184 4.85091 2.99057 3.71497C2.35277 2.71479 1.90383 1.31667 2.99062 0.43008C3.09066 0.348879 2.73998 0.331127 2.66299 0.396211L2.67233 0.386733Z" fill="#947346"/>
<path d="M-26.3389 69.0092C-24.9156 75.2417 -26.2047 81.6338 -25.8006 87.9345C-25.5901 91.2889 -24.7034 94.4122 -23.5798 97.5504C-23.0025 99.1673 -22.4005 100.775 -21.9041 102.42C-21.4076 104.065 -21.0837 105.678 -20.6129 107.291C-20.2195 108.732 -19.6172 110.108 -18.8251 111.375C-18.1397 112.406 -17.3446 113.36 -16.4537 114.219C-14.6184 116.009 -12.5097 117.481 -10.4907 119.048C-8.47175 120.614 -6.49169 122.302 -5.04847 124.438C-3.2645 127.088 -2.41778 130.2 -2.03592 133.326C-1.69757 136.581 -1.63477 139.858 -1.84818 143.123C-2.00771 146.453 -2.3533 149.77 -2.88335 153.061C-3.01449 153.9 -3.16235 154.731 -3.32106 155.564C-3.33494 155.643 -2.97718 155.64 -2.95275 155.522C-1.72666 149.026 -1.08106 142.295 -1.45876 135.668C-1.63772 132.557 -2.14444 129.392 -3.46635 126.552C-4.60716 124.093 -6.37594 122.097 -8.42453 120.352C-12.2818 117.072 -17.1936 114.453 -19.3817 109.64C-20.0342 108.067 -20.5408 106.437 -20.8952 104.771C-21.3032 103.134 -21.7842 101.527 -22.3455 99.9332C-23.4599 96.7666 -24.7152 93.6293 -25.196 90.2631C-26.0926 83.9703 -24.7185 77.6058 -25.5412 71.3052C-25.6443 70.5187 -25.7844 69.736 -25.9598 68.9644C-25.9823 68.8558 -26.3476 68.9129 -26.3281 69.007L-26.3389 69.0092Z" fill="#947346"/>
<path d="M112.399 85.4383C111.286 86.9573 109.578 87.7802 107.804 88.281C105.898 88.7825 103.967 89.1838 102.02 89.4831C97.6265 90.2677 93.2188 90.9634 88.7964 91.5702C80.0602 92.7627 71.2926 93.5312 62.4922 94.0875C60.5978 94.2093 58.6633 94.3924 56.8863 95.0977C55.2901 95.7877 53.8669 96.8237 52.7192 98.1309C51.4376 99.4959 50.2931 100.976 48.9635 102.309C47.5518 103.698 46.0105 104.947 44.3607 106.041C41.0166 108.219 37.2919 109.747 33.3817 110.543C29.5421 111.341 25.5627 111.756 21.9148 113.277C18.791 114.579 16.3759 116.788 14.2451 119.401C12.1142 122.015 10.2289 124.831 7.67337 127.035C7.02959 127.591 6.34197 128.093 5.61721 128.538C5.45359 128.64 5.80863 128.661 5.88864 128.61C11.6763 125.063 14.1039 117.996 19.9281 114.498C23.4858 112.361 27.6872 111.798 31.6981 111.044C35.4624 110.337 39.0842 109.29 42.4602 107.44C45.7716 105.607 48.7281 103.195 51.1898 100.318C52.4065 98.9132 53.6075 97.4328 55.1134 96.3307C56.9615 94.9876 59.1764 94.5387 61.4143 94.3455C65.7649 93.9738 70.1271 93.7847 74.476 93.3869C78.898 92.9714 83.3106 92.4748 87.7139 91.8971C92.0222 91.3215 96.3179 90.6617 100.601 89.9176C102.629 89.5643 104.672 89.234 106.682 88.7786C108.246 88.4272 109.835 87.9458 111.168 87.027C111.788 86.603 112.332 86.0764 112.776 85.4696C112.826 85.4026 112.486 85.3826 112.418 85.4722L112.399 85.4383Z" fill="#947346"/>
<path d="M33.1124 32.1468C33.8962 36.7715 35.196 41.357 35.1932 46.0621C35.1923 49.9966 34.2494 54.0438 31.6154 57.068C29.0511 60.0098 25.4773 61.7605 22.3807 64.0465C20.7777 65.2144 19.3389 66.5929 18.103 68.1448C16.8305 69.7915 15.7075 71.5487 14.7474 73.3956C13.7414 75.2697 12.8176 77.1948 11.9024 79.1067C10.9254 81.0599 10.1178 83.0935 9.48822 85.1851C9.34512 85.6943 9.22236 86.2107 9.11481 86.7277C9.10017 86.8024 9.45507 86.8042 9.48312 86.6851C9.97558 84.5053 10.7094 82.3873 11.671 80.3706C12.5612 78.411 13.5023 76.4786 14.4957 74.5617C16.3744 70.8978 18.5735 67.3598 21.8234 64.7589C24.8474 62.3408 28.4303 60.6523 31.1931 57.9034C32.558 56.5548 33.6269 54.9362 34.3316 53.1507C35.0292 51.3199 35.4314 49.3896 35.5231 47.4321C35.792 42.8454 34.6564 38.3428 33.8029 33.8723C33.6803 33.2823 33.5822 32.6835 33.4813 32.089C33.4595 31.984 33.0927 32.0338 33.113 32.1316L33.1124 32.1468Z" fill="#947346"/>
<path d="M32.8203 56.2777C35.3074 52.4194 37.9562 48.4142 42.1188 46.1937C44.344 45.0139 46.7905 44.3545 49.2013 43.6685C51.5874 43.0279 53.9122 42.1772 56.1483 41.1261C58.6106 39.9174 60.9143 38.409 63.0071 36.6349L62.6787 36.5975C59.3157 39.5618 55.9418 42.5283 52.347 45.2123C48.7359 47.9583 44.8226 50.2815 40.6835 52.1366C38.2466 53.2056 35.7493 54.1286 33.254 55.0435C33.0302 55.1278 33.3486 55.19 33.4533 55.1494C37.8516 53.5369 42.237 51.8629 46.3029 49.5039C50.1625 47.1893 53.8197 44.5524 57.2356 41.6213C59.1864 39.9926 61.0964 38.312 62.9912 36.6496C63.0898 36.5611 62.7406 36.5506 62.6629 36.6121C60.7585 38.2277 58.677 39.6217 56.4584 40.7672C54.1995 41.8944 51.8348 42.7955 49.3988 43.4575C47.0285 44.1389 44.6209 44.7675 42.3942 45.8495C40.327 46.8794 38.4821 48.3057 36.9643 50.0475C35.2474 51.9674 33.8388 54.1367 32.4467 56.2949C32.3988 56.3729 32.7451 56.3877 32.8226 56.2886L32.8203 56.2777Z" fill="#947346"/>
<path d="M61.0165 37.4375C58.0674 40.6329 54.3635 42.9733 50.555 44.9918C46.7465 47.0103 42.6975 48.8334 38.9444 51.0821C36.8664 52.3032 34.9105 53.7212 33.1033 55.3165C33.0048 55.4049 33.3547 55.419 33.4281 55.3547C36.6827 52.413 40.5368 50.3056 44.4152 48.333C48.2936 46.3604 52.2562 44.5212 55.8725 42.0858C57.8627 40.7688 59.6935 39.2252 61.3283 37.4859C61.4238 37.383 61.0718 37.3769 61.0036 37.4477L61.0165 37.4375Z" fill="#947346"/>
<path d="M9.97297 85.3034C10.8671 82.2617 12.4357 79.4616 14.5617 77.1118C16.7197 74.7163 19.2104 72.6436 21.9574 70.9572C25.2123 68.9064 28.6941 67.2579 32.16 65.605C33.8752 64.7842 35.5904 63.9634 37.2936 63.0846C38.9968 62.2058 40.6472 61.255 42.3123 60.32C45.6294 58.4413 48.9878 56.5616 52.6274 55.3824C53.0833 55.2348 53.545 55.0973 54.0062 54.975L53.7854 54.8926C50.8396 56.9244 48.2295 59.3924 45.6551 61.8681C43.0806 64.3438 40.5446 66.8228 37.6927 68.9258C36.197 70.0279 34.6074 70.9962 32.9422 71.8197C31.1428 72.7071 29.2733 73.4392 27.3907 74.1438C23.9365 75.4355 20.4164 76.6276 17.2048 78.4693C14.384 80.0862 11.7539 82.2035 10.0482 85.0121C9.83151 85.3668 9.63513 85.7285 9.4526 86.1025C9.40693 86.1912 9.76258 86.1966 9.81035 86.0999C11.3001 83.0869 13.8367 80.7738 16.6615 79.0126C19.7833 77.0839 23.24 75.8408 26.6762 74.5717C30.2771 73.2419 33.8447 71.8247 37.0356 69.6475C39.9585 67.6507 42.5434 65.2068 45.0898 62.7596C47.6362 60.3124 50.1887 57.8035 53.0484 55.6838C53.4077 55.4166 53.7686 55.1566 54.1381 54.9023C54.2505 54.8261 53.9499 54.8131 53.9173 54.8198C50.2233 55.8102 46.809 57.5656 43.4874 59.4225C41.797 60.3628 40.1423 61.3297 38.4466 62.2446C36.751 63.1596 34.9797 64.0374 33.2205 64.8825C29.7287 66.5558 26.1989 68.1728 22.8652 70.1531C20.005 71.803 17.382 73.8342 15.0681 76.191C12.8351 78.4485 11.113 81.1602 10.0183 84.1424C9.88869 84.5167 9.77138 84.896 9.66207 85.2774C9.63251 85.3892 9.99525 85.3743 10.0379 85.271L9.97297 85.3034Z" fill="#947346"/>
<path d="M10.0717 85.1431C11.6036 82.3062 13.724 79.8302 16.2907 77.8814C18.9506 75.7806 21.9255 74.143 24.9632 72.6622C28.3364 71.0173 31.7934 69.54 35.0842 67.7347C38.2222 66.0104 41.0731 63.885 43.9055 61.7068C46.7379 59.5286 49.517 57.3842 52.6555 55.7352C53.0408 55.5381 53.4275 55.3483 53.8201 55.1685C53.8951 55.1303 53.8564 55.0892 53.7983 55.0635C53.7115 55.0423 53.62 55.0533 53.5407 55.0944C50.349 56.6147 47.4789 58.6837 44.6815 60.8131C41.8282 62.9994 39.0078 65.2354 35.8944 67.0415C32.6391 68.9451 29.1447 70.4604 25.7482 72.0837C22.6597 73.5562 19.6243 75.1384 16.866 77.1653C14.2878 79.0603 11.9494 81.3473 10.302 84.1098C10.0968 84.447 9.90822 84.792 9.72841 85.1427C9.68274 85.2315 10.0348 85.2377 10.0862 85.1401L10.0717 85.1431Z" fill="#947346"/>
<path d="M12.5226 78.6607C13.8056 76.1448 14.9413 73.5563 15.924 70.9083C16.9539 68.2778 17.9707 65.6388 19.2455 63.116C20.5203 60.5932 22.0424 58.2078 23.513 55.8104C25.0284 53.4093 26.3503 50.8911 27.4659 48.2796C28.5195 45.5841 29.426 42.8333 30.1814 40.0393C30.2801 39.6978 30.3789 39.3563 30.4733 39.012L30.102 39.0401C30.5286 42.0551 30.0797 45.0859 29.495 48.0618C28.9512 50.8896 28.4269 53.8114 27.2894 56.4869C26.3584 58.7041 24.9005 60.5816 23.2634 62.3226C21.7189 63.9651 20.0554 65.4887 18.5795 67.1887C17.1767 68.8055 15.9384 70.6146 15.3526 72.696C15.2807 72.9488 15.2175 73.2073 15.1659 73.4672C15.1513 73.542 15.5062 73.5438 15.5335 73.421C15.9732 71.2719 17.1189 69.3801 18.4944 67.7048C19.9309 65.9602 21.5833 64.4199 23.1663 62.7996C24.7494 61.1793 26.2566 59.3936 27.2632 57.323C28.5109 54.7605 29.0489 51.9227 29.6236 49.1527C30.2382 46.1932 30.8066 43.1753 30.5834 40.1407C30.5588 39.7683 30.5152 39.3771 30.4623 38.9954C30.442 38.8977 30.1222 38.9377 30.0902 39.0199C29.2983 41.7972 28.5035 44.579 27.469 47.2784C26.4317 49.9259 25.1663 52.478 23.6871 54.9059C22.2334 57.3299 20.6931 59.7002 19.3594 62.1937C18.0677 64.7069 16.9253 67.2944 15.9383 69.9425C14.9113 72.5686 13.8989 75.2106 12.6328 77.7391C12.478 78.0469 12.3196 78.3555 12.154 78.6655C12.1112 78.7499 12.4603 78.7604 12.5298 78.6592L12.5226 78.6607Z" fill="#947346"/>
<path d="M6.03904 71.9808C5.91445 69.4248 6.27115 66.8685 7.09053 64.4449C7.92476 62.0086 9.19993 59.747 10.8523 57.7731C12.5723 55.6864 14.5515 53.795 15.9239 51.4332C17.2963 49.0714 18.0255 46.3372 19.0408 43.7815C19.9523 41.489 21.1817 39.1833 23.1689 37.6566C23.4278 37.4583 23.6985 37.276 23.9795 37.1105L23.6635 37.078C22.5926 39.7472 22.0873 42.5972 21.5165 45.4041C20.9457 48.211 20.2878 50.9983 18.9261 53.5203C17.7644 55.6798 16.1769 57.569 14.5293 59.3688C12.8817 61.1686 11.1863 62.8651 9.67127 64.7582C8.15624 66.6512 6.90541 68.6178 6.22404 70.8927C6.1393 71.1746 6.06254 71.4586 5.99814 71.7476C5.97295 71.8624 6.33418 71.8402 6.37397 71.7413C6.95946 69.4393 8.02522 67.2876 9.50116 65.4278C10.9825 63.4814 12.6885 61.7449 14.3455 59.9545C16.0407 58.2174 17.5528 56.3102 18.8579 54.2632C20.2988 51.8682 21.0698 49.1896 21.6558 46.4739C22.2685 43.6507 22.7084 40.7766 23.6745 38.0386C23.79 37.705 23.9134 37.3735 24.0456 37.0477C24.0933 36.9321 23.7728 36.9873 23.7325 37.0108C21.5855 38.2952 20.1768 40.4456 19.167 42.683C18.0275 45.1852 17.3626 47.9022 16.1425 50.3796C14.9224 52.8571 12.989 54.8786 11.1793 56.9689C10.2963 57.9673 9.49117 59.032 8.77105 60.1539C8.09458 61.2401 7.5224 62.3881 7.06216 63.5824C6.14098 65.9618 5.6705 68.4923 5.67477 71.0446C5.67363 71.3658 5.68408 71.6883 5.6989 72.0137C5.71846 72.1078 6.08902 72.0761 6.06646 71.9675L6.03904 71.9808Z" fill="#947346"/>
<path d="M6.27743 70.5871C6.72865 68.2775 7.61496 66.0751 8.88905 64.0976C10.1849 62.0933 11.6014 60.1699 13.1308 58.338C14.6698 56.4849 16.0958 54.5407 17.401 52.5157C18.0516 51.4706 18.6186 50.3756 19.0966 49.241C19.6194 47.9996 20.0338 46.709 20.4338 45.4215C21.2239 42.871 21.9628 40.2557 23.3595 37.9568C23.5304 37.6721 23.7108 37.3967 23.8999 37.1271C23.9494 37.0564 23.6095 37.0364 23.5241 37.1335C21.9695 39.3444 21.1291 41.943 20.3413 44.5043C19.5535 47.0656 18.7734 49.5007 17.4613 51.7896C16.2138 53.8592 14.8135 55.8326 13.2721 57.6931C11.7773 59.5745 10.2446 61.4372 8.92826 63.4514C7.61067 65.3887 6.64508 67.5436 6.07595 69.8172C6.01502 70.0866 5.95845 70.3589 5.90987 70.6333C5.89599 70.7117 6.25736 70.7083 6.27743 70.5871Z" fill="#947346"/>
<path d="M12.9218 29.7992C14.8119 26.6803 17.8739 24.5904 20.7553 22.4662C22.2253 21.3944 23.6322 20.2384 24.9691 19.0042C26.3404 17.7262 27.662 16.3906 29.118 15.2121C30.7325 13.9062 32.5208 12.8021 34.5606 12.3631L34.3247 12.2989C32.2552 15.363 29.8447 18.182 27.1397 20.7015C24.4361 23.22 21.4587 25.427 18.2633 27.2808C16.4624 28.324 14.5964 29.2502 12.6768 30.054C12.458 30.1447 12.7713 30.2004 12.8789 30.1554C16.3079 28.7246 19.5632 26.9081 22.582 24.7409C27.3288 21.3454 31.4337 17.1312 34.7049 12.2954C34.7622 12.208 34.4907 12.2266 34.469 12.2311C30.7511 13.0339 27.9871 15.8133 25.3254 18.3411C23.9765 19.6308 22.5545 20.8415 21.0665 21.9673C19.5953 23.0735 18.0789 24.1249 16.6597 25.2995C15.0562 26.5601 13.6767 28.0824 12.5792 29.8024C12.5277 29.8811 12.8776 29.8952 12.9551 29.796L12.9218 29.7992Z" fill="#947346"/>
<path d="M11.9261 29.436C11.712 27.9702 10.5583 26.9375 9.30773 26.3101C7.86893 25.5934 6.24829 25.4356 4.71511 24.9726C3.91816 24.7465 3.1565 24.4105 2.4521 23.9741C1.75343 23.534 1.12076 23.0123 0.449077 22.5025C-0.181763 22.0049 -0.852018 21.5595 -1.55504 21.1708C-2.2469 20.8117 -2.9678 20.5119 -3.71007 20.2744C-5.44452 19.7547 -7.21826 19.377 -9.01376 19.1451C-9.04991 19.1526 -9.35737 19.1976 -9.27288 19.2594C-6.75165 21.1557 -3.19656 20.8398 -0.788964 22.9334C-0.134705 23.5601 0.47095 24.2358 1.02274 24.9545C1.54969 25.6034 2.14637 26.1923 2.80199 26.7105C4.07258 27.6561 5.49783 28.3731 7.01389 28.8294C8.78714 29.3572 10.5974 29.7509 12.4295 30.0072C12.5426 30.0252 12.8328 29.897 12.5985 29.8588C9.44635 29.3547 6.11522 28.7518 3.45344 26.8508C2.77523 26.3631 2.1583 25.7953 1.61603 25.1597C1.03583 24.4912 0.502334 23.7751 -0.128947 23.1512C-1.24258 22.0573 -2.65266 21.497 -4.1262 21.067C-5.7841 20.5846 -7.54537 20.2219 -8.95351 19.1628L-9.21625 19.2778C-7.63256 19.4873 -6.06432 19.8009 -4.52167 20.2166C-2.99156 20.6553 -1.55114 21.362 -0.267288 22.304C0.994312 23.2387 2.17846 24.2726 3.65226 24.831C5.12607 25.3893 6.79807 25.5403 8.30832 26.1288C9.81857 26.7174 11.2972 27.8072 11.5353 29.4794C11.5571 29.5844 11.9247 29.5382 11.9036 29.4368L11.9261 29.436Z" fill="#947346"/>
<path d="M6.11412 71.2893C5.81697 69.0063 4.42339 67.1098 3.17923 65.2426C2.5087 64.2926 1.92867 63.2817 1.44674 62.2233C0.97097 60.9679 0.635447 59.6638 0.446288 58.3346C0.25999 57.035 -0.0560583 55.7573 -0.497097 54.5208C-0.877448 53.5954 -1.36012 52.7154 -1.93611 51.8974C-3.12126 50.169 -4.57641 48.6477 -5.86884 47.002C-7.25929 45.2294 -8.47464 43.2468 -8.63651 40.9432C-8.65682 40.8455 -8.99259 40.8813 -9.00408 40.9894C-9.26686 43.3547 -8.63622 45.6817 -7.80671 47.8767C-6.94725 50.1976 -5.90429 52.4578 -4.93727 54.7337C-3.97025 57.0096 -3.02011 59.3494 -1.9966 61.6249C-1.5474 62.6726 -1.00291 63.6767 -0.370002 64.6247C0.239586 65.4665 0.925172 66.2504 1.67811 66.9666C3.26986 68.5464 5.05868 70.0399 5.98463 72.1544C6.034 72.265 6.36873 72.1879 6.35294 72.1119C5.54064 70.272 4.07778 68.8769 2.65708 67.5033C1.90791 66.8047 1.20175 66.0612 0.542504 65.277C-0.16376 64.4009 -0.764965 63.4448 -1.24878 62.4286C-1.78744 61.3247 -2.25106 60.1826 -2.73051 59.0551L-4.21325 55.5498C-5.18841 53.2529 -6.19896 50.9672 -7.12862 48.6533C-8.10704 46.2136 -8.92876 43.6205 -8.63712 40.9584L-8.9967 41.0067C-8.67329 45.1948 -5.13949 48.1342 -2.78325 51.2692C-2.16118 52.0783 -1.61849 52.9454 -1.16271 53.8587C-0.641261 54.9964 -0.27465 56.1991 -0.0726887 57.4343C0.131078 58.7757 0.417043 60.1033 0.78358 61.4097C1.15609 62.4976 1.66542 63.5336 2.29929 64.4928C3.6601 66.6492 5.41863 68.7229 5.7559 71.326C5.77772 71.4309 6.14528 71.3848 6.12422 71.2834L6.11412 71.2893Z" fill="#947346"/>
<path d="M5.73103 70.9158C5.2779 68.8805 3.62448 67.4759 2.24959 66.0323C0.804034 64.48 -0.332118 62.6656 -1.09778 60.6868C-1.89557 58.6627 -2.48756 56.558 -3.16979 54.491C-3.50421 53.4806 -3.86319 52.4792 -4.28499 51.502C-4.72722 50.5096 -5.23574 49.5481 -5.80708 48.6241C-7.09576 46.5245 -8.70388 44.2308 -8.29431 41.6461C-8.28118 41.5641 -8.64256 41.5675 -8.66263 41.6887C-9.02043 43.9416 -7.81173 46.0012 -6.67707 47.8496C-6.07575 48.7859 -5.52248 49.7521 -5.01942 50.7447C-4.54879 51.7314 -4.13781 52.7454 -3.78869 53.7814C-2.40431 57.7754 -1.5462 62.177 1.30001 65.4556C2.78553 67.1594 4.84655 68.6379 5.36346 70.962C5.38603 71.0706 5.75134 71.0136 5.73103 70.9158Z" fill="#947346"/>
<path d="M-25.8029 69.2113C-26.53 67.5274 -27.6212 66.0513 -28.584 64.5032C-29.6239 62.8826 -30.3569 61.0843 -30.7462 59.1983C-30.9513 58.1371 -31.0405 57.0567 -31.0122 55.9763L-31.3798 56.0224C-30.6422 57.757 -29.5418 59.2954 -28.5936 60.9182C-27.6047 62.5735 -26.8942 64.38 -26.4904 66.2656C-26.269 67.3469 -26.154 68.4472 -26.1472 69.5509C-26.1276 69.645 -25.778 69.6214 -25.7789 69.5083C-25.7921 67.5586 -26.144 65.6259 -26.8187 63.7965C-27.4659 62.0432 -28.4696 60.462 -29.4451 58.8713C-30.0364 57.9439 -30.5604 56.9752 -31.013 55.9727C-31.055 55.8794 -31.3778 55.905 -31.3806 56.0188C-31.4315 57.9238 -31.1129 59.8207 -30.4424 61.6045C-29.7807 63.3548 -28.7339 64.8893 -27.726 66.4544C-27.131 67.3428 -26.611 68.2791 -26.1712 69.2538C-26.1218 69.3644 -25.7863 69.2909 -25.8029 69.2113Z" fill="#947346"/>
<path d="M-21.7263 101.715C-22.4645 98.7799 -23.0916 95.7802 -23.1121 92.7412C-23.1268 89.8936 -22.4867 87.1478 -21.5731 84.4659C-20.6921 81.8815 -19.6156 79.3659 -18.792 76.7594C-17.9438 74.0292 -17.4503 71.2008 -17.3236 68.3441C-17.2221 65.3756 -17.2844 62.4037 -17.5102 59.4419L-17.5787 58.3499L-17.947 58.3924C-17.5933 61.5283 -17.2035 64.6567 -16.8881 67.808C-16.5355 70.8897 -16.3562 73.9887 -16.3509 77.0904C-16.3504 78.5911 -16.5204 80.0869 -16.8575 81.5491C-17.1945 82.9406 -17.7245 84.2741 -18.1826 85.6266C-18.6447 86.9722 -18.9522 88.3662 -19.0994 89.7816C-19.2481 91.2624 -19.2872 92.7619 -19.5997 94.2163C-20.143 96.7381 -21.5217 99.0333 -21.7915 101.619C-21.8296 101.938 -21.8486 102.258 -21.8486 102.579C-21.8298 102.669 -21.4801 102.646 -21.481 102.532C-21.5122 99.896 -20.1595 97.5118 -19.456 95.0171C-19.1111 93.6478 -18.8992 92.2483 -18.8233 90.8381C-18.7397 89.3662 -18.4965 87.9078 -18.0978 86.4887C-17.6846 85.1191 -17.1495 83.7921 -16.7313 82.429C-16.326 81.0411 -16.0866 79.6098 -16.0181 78.1653C-15.9517 76.6672 -15.9664 75.1666 -16.0622 73.67C-16.141 72.093 -16.2603 70.5207 -16.4056 68.95C-16.6826 65.802 -17.0805 62.6715 -17.4421 59.5335C-17.4865 59.1387 -17.5336 58.7483 -17.5772 58.3571C-17.5983 58.2558 -17.9673 58.2947 -17.9455 58.3997C-17.7593 61.3287 -17.5697 64.3099 -17.6485 67.2524C-17.6908 70.1916 -18.1118 73.1129 -18.9011 75.9439C-19.6717 78.5696 -20.7322 81.0894 -21.6322 83.6551C-22.5323 86.2209 -23.3056 88.8698 -23.4373 91.6119C-23.584 94.6629 -23.0507 97.7011 -22.3465 100.655C-22.2712 101.017 -22.1707 101.373 -22.0737 101.749C-22.0504 101.862 -21.6858 101.801 -21.7054 101.707L-21.7263 101.715Z" fill="#947346"/>
<path d="M-21.6399 101.55C-22.0805 99.0099 -22.0805 96.4132 -21.6397 93.8737C-21.2581 91.3176 -20.6576 88.799 -20.0323 86.2903C-18.8077 81.2935 -17.462 76.3169 -17.0788 71.1552C-16.8344 68.1601 -16.8943 65.1478 -17.2575 62.1645C-17.2793 62.0596 -17.6468 62.1058 -17.6258 62.2071C-16.9502 67.4547 -17.3593 72.8181 -18.4132 77.9833C-19.4361 83.025 -21.0015 87.9605 -21.8649 93.0257C-22.3487 95.8523 -22.5595 98.7581 -22.0119 101.593C-21.9893 101.702 -21.6232 101.648 -21.6435 101.551L-21.6399 101.55Z" fill="#947346"/>
<path d="M-20.5999 107.099C-21.6253 104.669 -23.4208 102.69 -25.2897 100.866C-27.3439 98.8575 -29.4254 96.8811 -31.4451 94.8391C-33.4649 92.797 -35.4332 90.8387 -37.0718 88.5437C-38.6664 86.3152 -39.8096 83.8266 -40.9153 81.319C-42.1388 78.5527 -43.3335 75.7804 -45.0777 73.3035C-45.1363 73.2213 -45.4856 73.2825 -45.4393 73.3786C-43.8551 76.1842 -42.632 79.1791 -41.7993 82.2918C-41.0206 85.2223 -40.7611 88.2683 -39.9498 91.192C-39.5887 92.6093 -39.0173 93.9644 -38.2545 95.212C-37.4356 96.4215 -36.4609 97.5177 -35.3556 98.4722C-34.3177 99.4194 -33.2712 100.354 -32.2613 101.329C-31.3126 102.265 -30.3349 103.194 -29.2914 104.023C-28.279 104.865 -27.1497 105.555 -25.939 106.072C-24.581 106.573 -23.1608 106.885 -21.7182 106.999L-20.6049 107.112C-20.5433 107.118 -20.3919 107.12 -20.3554 107.06C-20.319 106.999 -20.3727 106.977 -20.4315 106.966C-21.9225 106.868 -23.3999 106.618 -24.8406 106.221C-26.117 105.809 -27.3144 105.183 -28.382 104.371C-29.4442 103.559 -30.4523 102.679 -31.4 101.735C-32.3988 100.776 -33.4035 99.826 -34.4325 98.9033C-35.5373 97.9711 -36.5468 96.9313 -37.4461 95.7992C-38.313 94.6033 -38.9726 93.2699 -39.3972 91.855C-40.2809 89.018 -40.5272 85.9996 -41.2166 83.0996C-41.9544 80.0576 -43.0632 77.1177 -44.5178 74.3463C-44.7015 74.0069 -44.8941 73.6429 -45.0901 73.2985L-45.4516 73.3736C-42.3168 77.8232 -40.978 83.2313 -38.0192 87.7778C-36.5057 90.1063 -34.5812 92.1077 -32.6446 94.0764C-30.5985 96.1545 -28.5158 98.1911 -26.4144 100.209C-24.313 102.226 -22.1519 104.386 -20.9929 107.132C-20.9472 107.243 -20.6081 107.169 -20.6246 107.089L-20.5999 107.099Z" fill="#947346"/>
<path d="M-21.6502 106.419C-23.9384 105.916 -25.6572 104.197 -27.1565 102.5C-27.985 101.562 -28.7936 100.575 -29.704 99.733C-30.5226 98.9517 -31.4455 98.2675 -32.3163 97.58C-33.2404 96.8823 -34.1003 96.1032 -34.8857 95.252C-35.6927 94.3058 -36.3543 93.2445 -36.8488 92.1032C-37.3799 90.9449 -37.8288 89.7469 -38.3014 88.5614C-38.7972 87.3127 -39.2972 86.0623 -39.8013 84.8104C-40.9399 81.9685 -42.0887 79.1325 -43.2476 76.3024C-43.2934 76.1911 -43.6325 76.2654 -43.6159 76.345C-42.5823 78.899 -41.5487 81.4531 -40.515 84.0072C-39.9977 85.2866 -39.4809 86.5637 -38.9646 87.8383C-38.4749 89.0694 -38.0055 90.3122 -37.4811 91.5285C-37.0177 92.6794 -36.4115 93.7674 -35.6767 94.7669C-34.9685 95.6528 -34.1593 96.4528 -33.2654 97.1505C-32.3581 97.887 -31.4264 98.5769 -30.5471 99.3419C-29.6128 100.185 -28.7387 101.092 -27.9312 102.057C-26.2733 103.955 -24.4412 105.983 -21.8731 106.544C-21.7852 106.568 -21.692 106.558 -21.6111 106.516C-21.5665 106.477 -21.5386 106.43 -21.6329 106.411L-21.6502 106.419Z" fill="#947346"/>
<path d="M-4.21335 125.389C-4.83837 122.382 -6.16994 119.604 -7.51643 116.863C-8.90191 114.043 -10.321 111.189 -10.9756 108.093C-11.3104 106.552 -11.4054 104.968 -11.2573 103.398C-11.0804 101.89 -10.7932 100.397 -10.398 98.9305C-10.0454 97.5055 -9.67612 96.0884 -9.44177 94.6389C-9.20742 93.1894 -9.09162 91.7684 -8.99118 90.3278C-8.7873 87.4612 -8.6533 84.5487 -7.80413 81.7746C-7.70024 81.4396 -7.58476 81.106 -7.46129 80.7745L-7.83262 80.8026C-8.28623 83.5927 -8.03413 86.4212 -7.76997 89.2169C-7.63765 90.5978 -7.50534 91.9787 -7.45121 93.3644C-7.39514 94.814 -7.43322 96.2642 -7.49012 97.7146C-7.60197 100.588 -7.80058 103.48 -7.43235 106.341C-7.06475 109.308 -6.18662 112.173 -5.55073 115.088C-5.1819 116.735 -4.9402 118.407 -4.82777 120.091C-4.71844 121.779 -4.72571 123.468 -4.73222 125.161C-4.73149 125.255 -4.36304 125.232 -4.36391 125.119C-4.35099 122.095 -4.38868 119.083 -4.96565 116.106C-5.54263 113.13 -6.42033 110.322 -6.8979 107.371C-7.3654 104.504 -7.27614 101.612 -7.15269 98.7394C-7.07771 97.2853 -7.02879 95.8328 -7.04434 94.3786C-7.0587 92.9846 -7.16209 91.5977 -7.29229 90.2089C-7.56629 87.0753 -7.95718 83.9057 -7.44969 80.7758C-7.4337 80.6895 -7.78258 80.7166 -7.82177 80.8003C-8.83677 83.4843 -9.0863 86.3491 -9.27873 89.1982C-9.38202 90.6431 -9.47011 92.0887 -9.65023 93.5269C-9.84873 95.016 -10.1365 96.4917 -10.5121 97.9461C-10.8647 99.3711 -11.2368 100.793 -11.4705 102.246C-11.7283 103.771 -11.7598 105.326 -11.5638 106.86C-11.1428 109.993 -9.82965 112.918 -8.46239 115.723C-7.09513 118.527 -5.64335 121.303 -4.84149 124.327C-4.74458 124.684 -4.66214 125.045 -4.58166 125.432C-4.5591 125.54 -4.19304 125.487 -4.21335 125.389Z" fill="#947346"/>
<path d="M-4.47264 123.888C-4.80605 120.891 -5.46978 117.941 -6.45171 115.09C-6.92987 113.66 -7.47807 112.256 -8.01905 110.851C-8.58995 109.492 -9.02372 108.079 -9.3139 106.634C-9.78927 103.875 -9.12598 101.132 -8.66381 98.4191C-8.43876 97.1014 -8.30216 95.7699 -8.25489 94.4338C-8.20961 93.0727 -8.23603 91.7114 -8.26968 90.3516C-8.3402 87.3079 -8.41253 84.2193 -7.69525 81.246C-7.66644 81.1305 -8.02843 81.1491 -8.07108 81.2524C-9.37591 86.5528 -8.13204 92.0485 -8.88525 97.4079C-9.26277 100.111 -10.0279 102.799 -9.83659 105.535C-9.61723 108.532 -8.19452 111.295 -7.20686 114.088C-6.03952 117.257 -5.2555 120.555 -4.87153 123.91C-4.85047 124.011 -4.4814 123.973 -4.50321 123.868L-4.47264 123.888Z" fill="#947346"/>
<path d="M-5.22628 124.49C-6.42262 122.708 -7.97488 121.194 -9.78504 120.043C-11.5952 118.892 -13.624 118.129 -15.7432 117.802C-18.2317 117.425 -20.7332 117.91 -23.227 117.689C-25.4868 117.486 -27.4705 116.452 -29.3775 115.316C-31.4263 114.114 -33.4809 112.812 -35.8603 112.396C-35.9073 112.406 -36.2219 112.471 -36.0976 112.525C-33.9286 113.362 -32.4806 115.266 -31.0743 117.024C-30.3719 117.943 -29.5884 118.797 -28.7334 119.577C-27.938 120.276 -27.0541 120.868 -26.1046 121.337C-25.142 121.813 -24.1159 122.148 -23.058 122.332C-21.8831 122.541 -20.6985 122.596 -19.5195 122.771C-18.3336 122.958 -17.17 123.266 -16.0469 123.691C-14.9275 124.125 -13.7779 124.477 -12.6073 124.744C-11.3247 124.996 -10.0134 125.071 -8.71061 124.965C-8.0633 124.903 -7.41958 124.808 -6.78195 124.681C-6.11518 124.527 -5.42377 124.511 -4.75077 124.636C-4.66399 124.658 -4.57247 124.647 -4.49317 124.605C-4.44496 124.565 -4.4207 124.519 -4.51424 124.504C-5.62434 124.244 -6.71534 124.584 -7.81577 124.733C-9.00552 124.909 -10.2135 124.926 -11.4077 124.781C-12.6144 124.614 -13.7989 124.313 -14.9395 123.884C-16.0314 123.461 -17.1491 123.108 -18.2857 122.828C-19.4501 122.579 -20.6384 122.505 -21.8186 122.361C-22.9519 122.246 -24.0641 121.975 -25.1237 121.556C-27.2119 120.691 -28.8781 119.225 -30.2979 117.493C-31.8772 115.556 -33.381 113.365 -35.7956 112.436L-36.0328 112.564C-31.7939 113.307 -28.723 116.886 -24.4886 117.698C-21.9819 118.181 -19.4373 117.649 -16.914 117.849C-14.7716 118.03 -12.6928 118.67 -10.818 119.724C-8.71369 120.9 -6.92011 122.562 -5.58633 124.572C-5.527 124.658 -5.17705 124.581 -5.22478 124.497L-5.22628 124.49Z" fill="#947346"/>
<path d="M-5.17821 124.431C-7.49262 124.092 -9.61177 123.06 -11.773 122.207C-12.8101 121.776 -13.8789 121.426 -14.9699 121.161C-16.0636 120.93 -17.1705 120.768 -18.2842 120.675C-20.5042 120.464 -22.798 120.352 -24.8912 119.499C-26.7751 118.728 -28.3036 117.362 -29.8037 116.023C-31.4249 114.574 -33.1021 113.092 -35.2084 112.412C-35.2977 112.381 -35.635 112.5 -35.4558 112.546C-31.5786 113.798 -29.3437 117.638 -25.7403 119.37C-23.7288 120.338 -21.4784 120.55 -19.2867 120.751C-18.1604 120.853 -17.0305 120.954 -15.918 121.154C-14.7873 121.37 -13.679 121.691 -12.6073 122.112C-10.2154 123.023 -7.89441 124.21 -5.33492 124.584C-5.22255 124.598 -4.92878 124.469 -5.16587 124.436L-5.17821 124.431Z" fill="#947346"/>
<path d="M9.82084 119.328C11.0377 116.346 11.7694 113.188 11.9882 109.974C12.2518 106.711 11.8907 103.427 10.9243 100.299C10.428 98.7622 9.72453 97.3002 8.83323 95.9536C7.9399 94.6834 6.9459 93.4871 5.86087 92.3764C4.78917 91.2858 3.79182 90.1245 2.87553 88.9002C1.94498 87.5154 1.23564 85.9941 0.773063 84.3909C0.313535 82.7889 -0.274712 81.2267 -0.985911 79.7196C-1.72141 78.2774 -2.64264 76.938 -3.72602 75.7355C-3.99046 75.4431 -4.26423 75.1601 -4.54448 74.8823C-4.61014 74.8205 -4.95676 74.8585 -4.90603 74.9575C-3.18809 77.7796 -2.92891 81.1504 -2.46106 84.3456C-2.26396 85.9662 -1.89825 87.5618 -1.36987 89.1065C-0.836565 90.4938 -0.111988 91.7997 0.782788 92.9862C2.55989 95.4034 4.77152 97.4433 6.58327 99.8457C7.53688 101.097 8.32789 102.464 8.93728 103.914C9.54231 105.39 9.96806 106.933 10.2054 108.51C10.6623 111.707 10.5518 114.96 9.87888 118.119C9.79591 118.536 9.70135 118.952 9.60316 119.369C9.57797 119.484 9.93995 119.465 9.97899 119.363C10.7716 116.209 11.0314 112.944 10.7476 109.703C10.4744 106.532 9.42366 103.477 7.68866 100.809C5.99127 98.3037 3.75976 96.2226 1.86514 93.8751C0.892913 92.7097 0.0670156 91.4294 -0.594078 90.0629C-1.24257 88.5854 -1.69292 87.0285 -1.9334 85.4328C-2.47131 82.2635 -2.58182 78.9185 -3.98714 75.9672C-4.16246 75.6014 -4.35617 75.2447 -4.56753 74.8985L-4.92908 74.9736C-3.78053 76.0953 -2.78213 77.3613 -1.95889 78.74C-1.12015 80.1795 -0.452314 81.7121 0.0310448 83.3066C0.538677 84.8964 1.01528 86.5003 1.86806 87.9542C2.67215 89.2494 3.6118 90.4553 4.67109 91.5514C5.70895 92.6799 6.78567 93.7776 7.73146 94.9894C8.7272 96.2647 9.53603 97.6757 10.1335 99.1797C11.2922 102.236 11.8194 105.496 11.6833 108.761C11.5969 111.996 10.9881 115.196 9.88051 118.236C9.74287 118.608 9.60086 118.977 9.45088 119.344C9.41108 119.443 9.76883 119.44 9.82671 119.338L9.82084 119.328Z" fill="#947346"/>
<path d="M10.5039 117.46C11.0797 114.323 11.2628 111.125 11.049 107.942C10.8295 104.884 9.99303 101.902 8.59003 99.1758C7.88371 97.8751 7.03246 96.6587 6.05257 95.5498C5.11939 94.4713 4.10847 93.4542 3.20709 92.3654C2.25462 91.2799 1.47561 90.0535 0.897697 88.7297C0.285045 87.2335 0.0191794 85.6274 -0.271845 84.0454C-0.515429 82.4961 -0.934346 80.9795 -1.52051 79.5249C-2.11014 78.1535 -2.89423 76.8744 -3.84854 75.727C-4.08029 75.4466 -4.3402 75.1759 -4.58054 74.9087C-4.65794 74.8266 -4.9969 74.9197 -4.94208 74.9838C-3.89524 76.0618 -3.00958 77.2856 -2.31259 78.6172C-1.62158 80.002 -1.12266 81.4748 -0.829639 82.9947C-0.501709 84.5727 -0.295204 86.1836 0.18096 87.7308C0.614038 89.1085 1.28323 90.4004 2.1586 91.5487C3.8782 93.8343 6.08793 95.7199 7.61391 98.1628C9.20106 100.801 10.2001 103.752 10.5428 106.812C10.8952 109.983 10.8149 113.187 10.304 116.335C10.2454 116.725 10.1869 117.115 10.1211 117.506C10.1072 117.584 10.4686 117.581 10.4886 117.46L10.5039 117.46Z" fill="#947346"/>
<path d="M13.6947 108.785C14.6136 106.129 15.1362 103.362 15.8156 100.642C16.4773 97.9823 17.3063 95.3105 18.8225 93.0056C20.4797 90.4902 22.9324 88.7534 25.3907 87.0797C26.6206 86.2464 27.8622 85.4334 29.0283 84.5114C30.2856 83.4827 31.4705 82.3685 32.5747 81.1768C33.7312 79.9403 34.9828 78.7965 36.318 77.7559C37.6888 76.7458 39.1118 75.8086 40.581 74.9481L41.648 74.3111L41.3313 74.275C41.0262 74.9132 40.5993 75.4855 40.0746 75.9596C39.5593 76.4744 39.0483 76.9921 38.5579 77.5358C37.5979 78.6151 36.7079 79.759 35.8441 80.9202C34.0929 83.2739 32.451 85.7182 30.487 87.9009C29.5228 88.9685 28.4763 89.9586 27.3572 90.8621C26.2552 91.748 25.0969 92.5626 23.9444 93.3874C21.6971 94.9871 19.43 96.6551 17.7269 98.8591C15.8961 101.229 14.9246 104.104 14.089 106.944C13.9816 107.298 13.8823 107.655 13.7785 108.009C13.7446 108.118 14.1081 108.106 14.1544 108.002C14.9797 105.15 15.8249 102.23 17.4772 99.7266C19.0371 97.3598 21.2867 95.5896 23.5561 93.9325C25.8254 92.2753 28.2139 90.6651 30.1947 88.5998C32.1756 86.5344 33.864 84.1144 35.5661 81.7785C36.4484 80.5794 37.333 79.3913 38.2861 78.2606C38.7612 77.6975 39.2538 77.1458 39.7704 76.6193C40.2671 76.151 40.7369 75.655 41.1778 75.1337C41.3916 74.871 41.5684 74.5801 41.7035 74.2694C41.7547 74.153 41.4307 74.209 41.3903 74.2325C39.9441 75.0956 38.503 75.9652 37.1162 76.9141C35.7166 77.8848 34.408 78.9807 33.2065 80.1884C32.0171 81.3795 30.8912 82.6404 29.6163 83.7473C28.4486 84.7282 27.2234 85.6384 25.9473 86.4732C23.5047 88.1134 20.9701 89.7464 19.1421 92.0934C17.4259 94.2888 16.4555 96.9334 15.738 99.5971C15.0205 102.261 14.5057 105.101 13.6704 107.797C13.5637 108.137 13.4554 108.469 13.3407 108.806C13.3016 108.908 13.6623 108.901 13.6984 108.803L13.6947 108.785Z" fill="#947346"/>
<path d="M14.0789 107.894C14.731 105.126 15.6439 102.427 16.8052 99.8322C17.975 97.2153 19.6052 94.8303 21.6179 92.791C23.775 90.6663 26.316 89.0093 28.6756 87.1333C29.8406 86.2194 30.9365 85.2206 31.9544 84.145C32.9026 83.1361 33.786 82.0691 34.6722 80.9976C36.4532 78.8416 38.2548 76.6398 40.5357 74.984C40.8274 74.7723 41.125 74.5708 41.432 74.3786C41.5956 74.2766 41.2406 74.256 41.1606 74.3066C38.7842 75.7935 36.9007 77.8915 35.1232 80.0279C33.2717 82.2439 31.4747 84.4863 29.2714 86.3525C26.945 88.316 24.3642 89.9624 22.0978 91.9965C19.9727 93.9379 18.2231 96.2547 16.9365 98.8308C15.6734 101.399 14.6834 104.092 13.9827 106.868C13.8919 107.211 13.804 107.55 13.7176 107.897C13.6916 108.008 14.0536 107.989 14.0934 107.891L14.0789 107.894Z" fill="#947346"/>
<path d="M55.4876 95.8263C57.6742 94.0429 59.0809 91.538 60.0174 88.9118C60.9991 86.1403 61.4779 83.2355 62.012 80.3607C62.5841 77.342 63.2609 74.2828 64.7319 71.5606C66.2028 68.8385 68.5745 66.639 70.5956 64.2594C71.6233 63.0663 72.5243 61.7693 73.2839 60.3895C74.0512 58.9365 74.7325 57.4396 75.3243 55.9066L75.7855 54.7498L75.4134 54.7742C75.5327 56.4372 74.9815 58.0318 74.3347 59.5292C73.7393 60.9292 73.0407 62.2863 72.3195 63.6255C70.8779 66.3076 69.3187 68.9499 68.242 71.8091C67.6866 73.2795 67.2893 74.805 67.0567 76.3597C66.7905 78.0915 66.649 79.8426 66.29 81.5634C65.6758 84.295 64.5099 86.8718 62.8638 89.1352C61.2177 91.3986 59.1264 93.3008 56.7183 94.7248C56.4191 94.9003 56.114 95.0656 55.8075 95.2237C55.7324 95.262 55.766 95.2965 55.8285 95.325C55.9151 95.3485 56.0075 95.3374 56.0861 95.2942C58.5678 93.9982 60.7601 92.2105 62.5297 90.0396C64.2992 87.8687 65.6091 85.3601 66.3796 82.6662C66.7799 81.0898 67.0605 79.4854 67.219 77.8665C67.3969 76.1865 67.7341 74.5272 68.2259 72.9112C69.1709 69.9812 70.6936 67.2898 72.1569 64.6033C72.8996 63.2407 73.6343 61.876 74.2847 60.4685C74.9351 59.0609 75.5953 57.5191 75.7663 55.928C75.808 55.5289 75.8154 55.1269 75.7882 54.7265C75.7671 54.6252 75.4561 54.671 75.4161 54.751C74.2133 57.7836 72.9757 60.8122 70.9402 63.3949C69.0173 65.8296 66.6497 67.9036 64.9702 70.5294C63.2906 73.1552 62.512 76.0695 61.9011 79.0282C61.2902 81.987 60.8934 84.9239 60.0167 87.783C59.1936 90.4649 57.9683 93.1171 55.9375 95.0872C55.683 95.3326 55.4198 95.5724 55.1484 95.7911C55.08 95.8431 55.1665 95.878 55.2237 95.8812C55.3104 95.8973 55.4 95.8787 55.4732 95.8293L55.4876 95.8263Z" fill="#947346"/>
<path d="M56.4827 95.4421C59.55 92.4406 61.79 88.6963 62.9853 84.5722C63.3995 83.1533 63.7027 81.7084 63.9979 80.2614C64.5966 77.3165 65.1727 74.3536 66.4893 71.6145C67.8059 68.8753 69.7377 66.4652 71.4566 63.9559C73.0716 61.6003 74.5614 59.0592 75.1502 56.2297C75.2198 55.8754 75.2719 55.521 75.3064 55.1665C75.3151 55.0816 74.9553 55.0922 74.938 55.209C74.5831 58.1108 73.2034 60.746 71.6221 63.155C69.9757 65.6682 68.0628 68.0064 66.6166 70.6479C65.9051 71.9536 65.3303 73.3295 64.9013 74.7536C64.474 76.1639 64.1628 77.6067 63.8705 79.0494C63.2786 81.9362 62.7186 84.8315 61.5409 87.5494C60.4068 90.165 58.831 92.5653 56.8829 94.6453C56.643 94.9066 56.3936 95.1585 56.1399 95.4076C56.0428 95.5033 56.392 95.5138 56.4646 95.4458L56.4827 95.4421Z" fill="#947346"/>
<path d="M24.8653 112.229C27.5456 110.608 29.3782 107.92 30.7103 105.128C32.1999 102.006 33.1367 98.6548 34.7599 95.5763C36.3135 92.5803 38.5691 90.0765 40.8927 87.6642C42.0539 86.4639 43.2355 85.2895 44.3557 84.0373C45.4171 82.8652 46.3976 81.6307 47.3694 80.3904C49.2749 77.9443 51.2554 75.3692 54.0138 73.8332C54.361 73.6391 54.719 73.4651 55.0861 73.3121L54.8219 73.2386C50.2737 78.2248 46.5758 83.9259 43.8759 90.1139C42.5145 93.2362 41.52 96.5087 40.0886 99.5851C39.4109 101.109 38.574 102.558 37.5921 103.906C36.619 105.204 35.4968 106.382 34.2485 107.418C31.7526 109.482 28.8647 111.02 25.7589 111.938C25.3615 112.058 24.9655 112.167 24.5636 112.266C24.3177 112.317 24.5228 112.433 24.6775 112.397C27.8071 111.63 30.7598 110.268 33.3746 108.385C35.9985 106.473 38.1534 103.989 39.6761 101.121C41.3053 98.0712 42.3089 94.7515 43.6032 91.5601C46.1767 85.2213 49.7876 79.3565 54.2876 74.2067C54.5647 73.8886 54.8498 73.5726 55.1387 73.2747C55.2399 73.1631 54.92 73.1842 54.8752 73.2049C52.0078 74.4162 49.8936 76.7472 47.9869 79.1332C46.9877 80.3867 46.0329 81.6725 44.9965 82.8922C43.9601 84.1119 42.7581 85.3698 41.6107 86.5635C39.3113 88.9292 36.9649 91.3047 35.2253 94.1317C33.3784 97.1321 32.3602 100.527 30.9894 103.749C29.7624 106.647 28.1522 109.534 25.6134 111.474C25.2968 111.719 24.966 111.945 24.6228 112.151C24.4592 112.253 24.8142 112.274 24.895 112.227L24.8653 112.229Z" fill="#947346"/>
<path d="M26.7441 111.216C29.2205 109.594 31.3947 107.551 33.1688 105.18C35.0598 102.646 36.3383 99.7603 37.6322 96.8937C38.2909 95.4354 38.9641 93.974 39.7289 92.5728C40.4938 91.1717 41.2867 89.8327 42.1398 88.5113C43.8488 85.8455 45.7665 83.2948 47.7252 80.796C48.7092 79.5419 49.7107 78.2992 50.7194 77.0551C51.6556 75.8977 52.602 74.6439 53.9157 73.8876C54.2432 73.6989 54.5922 73.5503 54.9552 73.445C55.1973 73.3758 54.9981 73.27 54.8412 73.3139C53.4357 73.7192 52.3548 74.7065 51.4179 75.7885C50.4087 76.9573 49.4643 78.1843 48.5045 79.3919C46.5147 81.8858 44.5656 84.4128 42.7725 87.0546C40.9602 89.6926 39.3634 92.4727 37.9978 95.3679C36.6397 98.2705 35.4534 101.273 33.6888 103.962C32.0144 106.486 29.8985 108.687 27.443 110.459C27.1138 110.69 26.8019 110.913 26.4733 111.129C26.3104 111.234 26.6618 111.256 26.7411 111.202L26.7441 111.216Z" fill="#947346"/>
<path d="M78.0586 92.9672C80.3291 92.3141 82.6509 91.6353 84.6236 90.2928C86.5962 88.9502 87.866 87.0024 89.4931 85.3579C90.3612 84.516 91.3097 83.7612 92.3249 83.1043C93.3296 82.4681 94.2849 81.7571 95.1831 80.9775C96.6775 79.6022 97.7387 77.8487 98.7712 76.12C99.9475 74.1577 101.131 72.1409 102.918 70.667L102.594 70.6288C99.388 73.6434 95.0915 75.0195 91.5352 77.5256C87.9004 80.0895 85.6408 83.9534 82.8698 87.3346C81.1323 89.3879 79.2324 91.2979 77.1886 93.046C77.0865 93.1352 77.4364 93.1493 77.5134 93.0842C79.3279 91.5215 81.0344 89.8373 82.6211 88.0432C84.0625 86.3769 85.3233 84.5669 86.6649 82.8193C87.9715 81.0316 89.5042 79.4211 91.2248 78.0281C92.9715 76.6872 94.9387 75.6818 96.8783 74.652C99.0083 73.5222 101.138 72.3358 102.908 70.6729C103.009 70.5764 102.655 70.5783 102.583 70.6346C99.4284 73.2385 98.2188 77.3638 95.4821 80.3112C93.8832 82.0367 91.7328 83.0499 89.9563 84.5744C88.2441 86.063 86.9951 87.9838 85.2944 89.4737C83.2139 91.2955 80.5288 92.0952 77.928 92.8471C77.6858 92.8974 77.8852 93.0221 78.0412 92.9745L78.0586 92.9672Z" fill="#947346"/>
<path d="M78.5251 92.5078C80.3392 91.6437 82.0377 90.5551 83.5807 89.2673C85.0946 87.9751 86.4604 86.5187 87.653 84.9247C88.9042 83.2866 90.1196 81.603 91.7312 80.3015C93.3427 79.0001 95.2461 77.9777 96.8967 76.6644C98.7842 75.1659 100.387 73.349 101.977 71.546C102.072 71.4395 101.716 71.4341 101.652 71.5078C100.284 73.1353 98.8051 74.6663 97.2262 76.09C95.6253 77.461 93.7856 78.4814 92.0983 79.7269C91.2592 80.3432 90.4847 81.0431 89.7866 81.8157C89.1173 82.5513 88.5114 83.338 87.9105 84.1311C86.7162 85.7729 85.3685 87.297 83.8855 88.6829C82.1956 90.195 80.2994 91.4586 78.2537 92.4358C78.1741 92.4523 78.213 92.5122 78.2747 92.5371C78.3627 92.5591 78.4557 92.5478 78.5359 92.5055L78.5251 92.5078Z" fill="#947346"/>
<path d="M77.4863 92.9539C79.282 91.1045 80.3087 88.5313 80.8051 86.0381C80.8891 85.6518 80.9502 85.2609 80.9881 84.8674C81.0525 84.5521 80.9951 84.224 80.8274 83.9493C80.7755 83.8808 80.4664 83.8997 80.4659 84.0244C80.4845 84.6586 80.4996 85.2936 80.5182 85.9278C80.5197 86.0257 80.8867 85.9948 80.8858 85.8817C80.8707 85.2467 80.8521 84.6125 80.8371 83.9775L80.4755 84.0526C80.627 84.3052 80.6798 84.6048 80.624 84.894C80.5943 85.2207 80.5473 85.5455 80.483 85.8672C80.3534 86.5538 80.1833 87.2322 79.9736 87.8987C79.5948 89.1253 79.0572 90.2969 78.3745 91.3837C78.023 91.9421 77.6157 92.4632 77.1588 92.9389C77.0625 93.0382 77.4117 93.0487 77.4836 92.9772L77.4863 92.9539Z" fill="#947346"/>
<path d="M99.3408 90.1682C103.824 90.1616 108.372 90.1793 112.772 91.1528C114.93 91.6147 117.014 92.3721 118.965 93.4037C121.021 94.5131 122.849 95.9947 124.634 97.4701C126.603 99.1037 128.558 100.778 130.779 102.065L131.084 101.956C127.081 100.28 122.806 99.4735 118.645 98.3598C116.524 97.8085 114.441 97.1175 112.411 96.2912C110.385 95.439 108.406 94.4803 106.481 93.4192C104.287 92.2288 102.142 90.9453 100.001 89.661C99.9151 89.6108 99.5726 89.7047 99.6926 89.7741C103.488 92.0476 107.303 94.3281 111.37 96.0921C113.353 96.9477 115.393 97.6668 117.474 98.2443C119.553 98.828 121.663 99.3071 123.754 99.8393C126.148 100.407 128.497 101.15 130.782 102.064C130.857 102.097 131.217 102.03 131.088 101.955C127.044 99.6087 123.915 95.9884 119.88 93.629C116.013 91.359 111.51 90.5051 107.078 90.1952C104.53 90.0187 101.974 90.0098 99.4221 90.0153C99.2635 90.0143 99.0772 90.1701 99.3444 90.1674L99.3408 90.1682Z" fill="#947346"/>
<path d="M100.462 90.4109C104.544 91.341 108.63 92.2704 112.635 93.4882C116.667 94.6881 120.569 96.2881 124.283 98.2644C126.403 99.3944 128.431 100.638 130.441 101.927C130.523 101.978 130.867 101.891 130.749 101.814C127.198 99.4675 123.451 97.4317 119.55 95.7288C115.678 94.1589 111.693 92.8817 107.63 91.9079C105.333 91.328 103.022 90.804 100.71 90.2764C100.667 90.264 100.622 90.2603 100.578 90.2656C100.534 90.2709 100.491 90.2851 100.452 90.3073C100.408 90.3467 100.38 90.3941 100.473 90.4086L100.462 90.4109Z" fill="#947346"/>
<path d="M47.0276 104.464C49.9481 102.618 53.2851 101.072 56.811 101.105C60.1182 101.139 63.0977 102.736 66.1862 103.714C69.2747 104.692 72.5957 104.829 75.8499 104.844C79.1902 104.856 82.5626 104.804 85.8157 105.612C89.0157 106.401 92.0043 107.86 94.8237 109.54C95.1722 109.747 95.5179 109.958 95.8643 110.173L96.1008 110.041C92.7863 109.554 89.466 109.1 86.1398 108.679C82.8137 108.257 79.4891 107.867 76.1659 107.508C72.8642 107.156 69.5567 106.794 66.2403 106.607C64.592 106.515 62.9418 106.469 61.2893 106.503C59.6368 106.537 58.012 106.685 56.3684 106.744C53.4809 106.842 50.4142 106.622 47.9183 105.011C47.6215 104.819 47.3371 104.608 47.0668 104.38C46.9844 104.31 46.6542 104.409 46.7053 104.455C48.863 106.272 51.7267 106.84 54.4743 106.903C56.1295 106.937 57.782 106.813 59.434 106.722C61.0861 106.632 62.7568 106.613 64.4201 106.668C67.793 106.782 71.1629 107.155 74.5137 107.489C77.8645 107.823 81.2404 108.224 84.6005 108.64C87.9606 109.056 91.3102 109.511 94.657 109.99L95.936 110.173C95.9757 110.165 96.3028 110.124 96.1769 110.044C93.3453 108.288 90.3681 106.72 87.1588 105.76C83.9495 104.799 80.5585 104.689 77.2001 104.68C73.8416 104.672 70.3597 104.705 67.0644 103.766C63.9323 102.869 60.9807 101.224 57.6856 100.977C54.2137 100.713 50.8376 101.98 47.8777 103.69C47.4941 103.914 47.1157 104.143 46.7423 104.38C46.5787 104.481 46.9309 104.506 47.0138 104.451L47.0276 104.464Z" fill="#947346"/>
<path d="M46.9093 104.439C49.863 105.313 52.9614 104.85 55.9595 104.522C57.5435 104.324 59.1411 104.254 60.7365 104.315C62.3487 104.414 63.9537 104.61 65.5427 104.902C68.754 105.454 71.9314 106.134 75.1937 106.26C78.5625 106.391 81.9557 106.131 85.3063 106.628C88.5489 107.113 91.6382 108.295 94.6177 109.602L95.7282 110.1C95.7683 110.116 95.8113 110.124 95.8546 110.123C95.8978 110.123 95.9406 110.114 95.9802 110.096C96.02 110.088 96.1122 110.024 96.0338 109.991C93.096 108.649 90.085 107.391 86.9106 106.725C83.6375 106.039 80.2989 106.162 76.9839 106.145C75.2914 106.139 73.6008 106.029 71.9217 105.815C70.3115 105.598 68.7173 105.295 67.1217 105.004C65.5261 104.713 63.9335 104.436 62.3237 104.275C60.7629 104.114 59.1909 104.094 57.6265 104.213C54.5379 104.451 51.3833 105.133 48.2923 104.578C47.9105 104.506 47.5327 104.415 47.1603 104.304C47.0681 104.278 46.7301 104.393 46.9129 104.438L46.9093 104.439Z" fill="#947346"/>
<path d="M20.323 114.329C23.6807 113.204 27.1942 112.614 30.7351 112.58C34.1201 112.574 37.4895 113.041 40.7462 113.966C43.869 114.878 46.9409 115.956 49.9488 117.196C52.9535 118.388 55.9526 119.607 59.0245 120.596C62.3839 121.662 65.8214 122.463 69.3055 122.991L70.6064 123.189L70.58 123.062C67.3104 124.067 63.9199 124.626 60.5004 124.722C57.0885 124.824 53.6779 124.474 50.3572 123.681C46.9194 122.855 43.6772 121.482 40.4883 119.966C37.2993 118.451 34.2286 116.869 30.9272 115.701C27.7913 114.585 24.4649 113.842 21.1224 114.019C20.7199 114.042 20.3196 114.076 19.918 114.122C19.7047 114.166 19.7158 114.292 19.9481 114.267C23.3758 113.864 26.8159 114.52 30.0603 115.613C33.4252 116.741 36.5931 118.356 39.7887 119.885C42.9843 121.415 46.1506 122.803 49.5482 123.672C56.1427 125.358 63.0601 125.307 69.6276 123.524C70.02 123.416 70.4073 123.302 70.7939 123.184C70.9096 123.16 70.8836 123.071 70.7683 123.061C67.165 122.565 63.6055 121.79 60.1221 120.742C56.9627 119.767 53.8925 118.533 50.8181 117.314C47.7437 116.095 44.742 114.918 41.6077 114.01C38.3995 113.052 35.0796 112.521 31.7334 112.429C28.2315 112.369 24.7408 112.84 21.3802 113.826C20.9538 113.952 20.529 114.086 20.11 114.229C20.045 114.243 20.0083 114.285 20.0565 114.335C20.1047 114.385 20.2558 114.35 20.3085 114.332L20.323 114.329Z" fill="#947346"/>
<path d="M21.4949 114.232C24.6792 113.457 27.9993 113.572 31.2021 114.156C34.4796 114.755 37.6356 115.84 40.7531 117.012C43.8706 118.184 46.9884 119.393 50.1939 120.336C56.3945 122.158 62.8069 123.159 69.2668 123.312L70.4807 123.328C70.6394 123.329 70.8257 123.173 70.5621 123.175C63.9889 123.13 57.4514 122.196 51.1272 120.399C47.919 119.479 44.7869 118.292 41.6534 117.115C38.5199 115.939 35.3854 114.812 32.1168 114.147C28.9798 113.454 25.7407 113.358 22.569 113.866C22.1749 113.948 21.7808 114.029 21.3868 114.111C21.1409 114.162 21.3468 114.282 21.5008 114.243L21.4949 114.232Z" fill="#947346"/>
<path d="M-4.0956 160.132C-2.72203 156.705 -1.35283 153.275 0.160975 149.906C1.63282 146.565 3.31719 143.322 5.20373 140.197C6.11241 138.689 7.14503 137.259 8.29087 135.923C9.44483 134.617 10.7542 133.457 12.1897 132.47C15.0835 130.46 18.3706 129.109 21.6706 127.928C25.2126 126.66 28.8283 125.565 32.2475 123.978C32.674 123.78 33.0983 123.571 33.5182 123.359L33.2201 123.304C30.752 125.675 27.9433 127.64 25.1747 129.635C23.7961 130.624 22.4241 131.627 21.1069 132.693C19.7769 133.771 18.5045 134.917 17.2949 136.128C14.8763 138.538 12.681 141.15 10.4799 143.771C8.23586 146.457 5.97647 149.124 3.58079 151.68C1.07662 154.349 -1.52168 156.927 -4.13021 159.493L-5.06443 160.443C-5.16146 160.538 -4.81154 160.552 -4.73966 160.481C-2.13113 157.915 0.477402 155.349 3.00417 152.698C5.44188 150.145 7.75639 147.489 10.0328 144.777C12.2231 142.159 14.4023 139.524 16.7763 137.063C17.9489 135.845 19.1696 134.678 20.4532 133.577C21.7368 132.476 23.1193 131.433 24.4985 130.429C27.2598 128.417 30.0935 126.499 32.6346 124.208C32.9533 123.926 33.2495 123.646 33.5515 123.356C33.6651 123.25 33.2974 123.277 33.2498 123.302C29.8404 125.045 26.173 126.2 22.5607 127.456C19.2337 128.616 15.9004 129.89 12.8962 131.768C11.43 132.671 10.0729 133.741 8.85196 134.957C7.6422 136.205 6.55748 137.568 5.61334 139.028C3.63677 142.101 1.89353 145.318 0.398289 148.652C-1.16928 151.999 -2.55717 155.447 -3.93572 158.886L-4.45411 160.131C-4.49391 160.23 -4.13615 160.227 -4.07828 160.124L-4.0956 160.132Z" fill="#947346"/>
<path d="M-3.56694 159.191C-1.51705 156.552 0.340926 153.768 1.99269 150.862C3.6856 147.992 5.31963 145.092 7.25773 142.367C9.18594 139.581 11.5168 137.096 14.174 134.995C16.9703 132.824 20.0595 131.083 23.1483 129.377C26.2372 127.67 29.3053 126.009 32.1693 123.983C32.5244 123.732 32.8752 123.478 33.2208 123.217C33.2892 123.165 33.1803 123.131 33.1412 123.124C33.0557 123.11 32.968 123.128 32.8953 123.175C30.059 125.317 26.9501 127.054 23.8469 128.763C20.7436 130.473 17.6921 132.142 14.8509 134.205C13.4355 135.221 12.1035 136.349 10.8674 137.577C9.71442 138.747 8.64446 139.997 7.66534 141.316C5.70546 144.037 3.90093 146.866 2.26038 149.791C0.563248 152.677 -1.13962 155.572 -3.14911 158.243C-3.3979 158.571 -3.65106 158.895 -3.90934 159.213C-3.95666 159.276 -3.6233 159.301 -3.55157 159.211L-3.56694 159.191Z" fill="#947346"/>
</svg>
