<svg width="68" height="139" viewBox="0 0 68 139" fill="none" xmlns="http://www.w3.org/2000/svg">
<path d="M46.8247 0.823398C48.8439 1.0462 48.6089 3.83781 48.2061 5.24401C47.4432 7.91337 46.5271 10.5402 46.2188 13.3146C45.9105 16.0889 46.3466 18.9193 47.9175 21.328C49.5704 23.8489 51.9486 25.8784 54.1108 27.9387C62.4469 35.8799 71.4299 43.553 77.5031 53.4694C79.0046 55.8995 80.2807 58.462 81.3153 61.1247C82.3462 63.9628 83.2032 66.861 83.8818 69.8031C85.2904 75.4178 86.6675 81.3678 90.4266 85.9497C92.3417 88.2778 94.8028 90.0048 97.3636 91.5632C99.8488 93.0806 102.375 94.5401 104.766 96.1853C109.66 99.5027 114.266 103.219 118.787 107.032C123.348 110.886 127.822 114.857 132.43 118.661C134.678 120.516 136.991 122.286 139.259 124.095C141.401 125.812 143.495 127.632 145.193 129.798C146.06 130.899 146.798 132.096 147.394 133.364C147.428 133.453 147.133 133.595 147.099 133.51C144.609 128.191 139.618 124.795 135.16 121.253C130.519 117.564 126.059 113.657 121.564 109.792C117.116 105.997 112.633 102.208 107.899 98.7514C105.516 97.0083 103.075 95.3509 100.552 93.8093C98.1167 92.3217 95.5891 90.9577 93.3417 89.1937C88.6924 85.5569 86.3833 80.2802 84.8367 74.726C83.2499 69.0679 82.1686 63.3019 79.5988 57.9682C74.5027 47.3857 65.6845 39.2413 57.2461 31.3257C55.1256 29.337 52.9927 27.325 50.9179 25.2729C48.9225 23.299 46.9677 21.1583 46.2151 18.3802C45.5374 15.8681 45.8267 13.217 46.4037 10.7109C46.6978 9.41352 47.0738 8.13714 47.4612 6.86334C47.799 5.74221 48.2071 4.63954 48.1896 3.45228C48.1827 2.40136 47.8438 1.14532 46.6088 1.00881C46.4953 0.996549 46.7476 0.814589 46.8362 0.825951L46.8247 0.823398Z" fill="#947346"/>
<path d="M101.428 37.9079C103.368 43.2289 107.403 47.3634 110.135 52.2447C111.592 54.8412 112.436 57.5912 113.11 60.4663C113.459 61.9468 113.785 63.4326 114.207 64.8952C114.63 66.3577 115.165 67.7133 115.591 69.1394C115.992 70.4009 116.206 71.7142 116.226 73.0376C116.212 74.1346 116.08 75.2267 115.831 76.295C115.327 78.5094 114.467 80.6194 113.719 82.7562C112.971 84.893 112.31 87.1014 112.264 89.3844C112.213 92.214 113.081 94.9369 114.301 97.4461C115.616 100.03 117.146 102.498 118.876 104.824C120.597 107.224 122.45 109.525 124.428 111.718C124.929 112.279 125.439 112.826 125.959 113.37C126.007 113.421 125.739 113.591 125.664 113.515C121.626 109.273 117.907 104.577 114.999 99.4658C113.634 97.065 112.488 94.4672 112.105 91.7183C111.77 89.3404 112.125 87.0044 112.809 84.7203C114.1 80.4242 116.494 76.1123 115.805 71.4796C115.534 69.9952 115.126 68.5388 114.588 67.129C114.104 65.7149 113.688 64.2883 113.339 62.8327C112.644 59.9409 112.068 57.0031 110.806 54.2678C108.444 49.1554 104.359 45.0824 101.939 39.9997C101.638 39.3649 101.365 38.7154 101.124 38.057C101.089 37.9654 101.388 37.832 101.419 37.9114L101.428 37.9079Z" fill="#947346"/>
<path d="M6.13215 116.893C7.69162 117.487 9.35758 117.278 10.9183 116.797C12.5774 116.253 14.2068 115.622 15.7998 114.907C19.4452 113.377 23.0587 111.773 26.6404 110.096C33.7127 106.779 40.6044 103.132 47.4184 99.3105C48.8862 98.4895 50.4133 97.6947 52.0745 97.3642C53.5939 97.1094 55.1511 97.1951 56.6339 97.6151C58.2441 98.0138 59.8077 98.564 61.4384 98.9161C63.1565 99.2693 64.9044 99.4571 66.658 99.4769C70.1938 99.488 73.6994 98.8316 76.9911 97.5421C80.2312 96.2879 83.3913 94.6819 86.8367 94.0577C89.787 93.5232 92.6463 94.0038 95.4892 94.9227C98.3321 95.8416 101.09 97.0289 104.051 97.4383C104.797 97.5419 105.551 97.585 106.304 97.5671C106.475 97.5642 106.22 97.7504 106.137 97.7513C100.124 97.8977 94.9179 93.8093 88.9019 94.0098C85.2274 94.1327 81.8311 95.7354 78.4846 97.1045C75.3444 98.3903 72.1463 99.3543 68.7451 99.6032C65.3996 99.8329 62.0395 99.4612 58.8239 98.5058C57.243 98.0467 55.6372 97.5234 53.9866 97.4283C51.9656 97.3186 50.102 98.0505 48.3443 98.9837C44.9292 100.801 41.5934 102.759 38.167 104.556C34.6777 106.375 31.1563 108.129 27.6029 109.819C24.1212 111.464 20.6082 113.04 17.064 114.548C15.3859 115.261 13.7069 115.998 11.9927 116.627C10.6603 117.118 9.24616 117.525 7.81258 117.483C7.14715 117.466 6.48937 117.336 5.86745 117.098C5.79784 117.072 6.04101 116.894 6.13482 116.927L6.13215 116.893Z" fill="#947346"/>
<path d="M39.4653 39.097C41.1078 42.9143 42.3476 46.9508 44.6139 50.4494C46.5079 53.3757 49.1569 55.9324 52.5716 56.9145C55.8948 57.8687 59.3956 57.4513 62.7992 57.6615C64.5536 57.7589 66.2872 58.0919 67.9534 58.6515C69.6924 59.2641 71.3734 60.0308 72.9763 60.9426C74.6265 61.8525 76.2401 62.8399 77.8409 63.8217C79.5076 64.8045 81.087 65.9285 82.5618 67.1814C82.9133 67.4914 83.2531 67.8164 83.5819 68.1492C83.6288 68.1978 83.3656 68.3699 83.2875 68.2948C81.8721 66.9103 80.3071 65.688 78.6213 64.6505C77.0161 63.6212 75.3861 62.6367 73.7247 61.6889C70.564 59.8675 67.2257 58.294 63.5565 57.9232C60.1435 57.5797 56.6658 58.0479 53.2877 57.3326C51.6235 56.9863 50.0495 56.2967 48.666 55.3077C47.2661 54.2815 46.038 53.0392 45.0278 51.6272C42.6205 48.3447 41.2985 44.449 39.7821 40.7128C39.5893 40.2149 39.3741 39.7223 39.1631 39.2315C39.1288 39.143 39.4256 39.0035 39.4575 39.0859L39.4653 39.097Z" fill="#947346"/>
<path d="M51.295 56.9064C47.5883 55.2332 43.6905 53.5286 39.5256 53.88C37.3026 54.0732 35.1654 54.76 33.042 55.4099C30.9588 56.0817 28.8201 56.5676 26.651 56.8618C24.2377 57.1477 21.7981 57.1342 19.3877 56.8216L19.6139 56.6357C23.542 57.2224 27.4793 57.8055 31.4449 58.072C35.4525 58.377 39.4815 58.222 43.4532 57.61C45.7802 57.2325 48.0821 56.7173 50.3785 56.1971C50.5855 56.1521 50.3786 56.3516 50.2812 56.3717C46.2335 57.2888 42.1658 58.154 38.0061 58.3559C34.0213 58.4915 30.0319 58.2899 26.0805 57.7534C23.8455 57.4807 21.616 57.1496 19.4065 56.8249C19.2906 56.8065 19.5453 56.6307 19.6327 56.639C21.8268 56.9244 24.0459 56.9596 26.2475 56.744C28.4703 56.4954 30.6629 56.0278 32.7935 55.348C34.8846 54.7142 36.978 54.0232 39.155 53.7565C41.1884 53.5278 43.2471 53.701 45.2144 54.2662C47.4154 54.8682 49.5071 55.8039 51.5812 56.7395C51.6543 56.7744 51.4039 56.9521 51.2986 56.9156L51.295 56.9064Z" fill="#947346"/>
<path d="M21.2546 56.4607C24.9861 57.4184 28.8675 57.377 32.6718 57.0457C36.4762 56.7145 40.3654 56.1221 44.2393 55.9887C46.3726 55.8971 48.5099 56.0106 50.6219 56.3276C50.7378 56.346 50.4843 56.5249 50.3987 56.5123C46.5621 55.8903 42.6811 56.1774 38.8468 56.5764C35.0126 56.9755 31.1799 57.5143 27.3179 57.443C25.2037 57.421 23.099 57.1539 21.046 56.6468C20.9254 56.6162 21.1843 56.4422 21.2691 56.4621L21.2546 56.4607Z" fill="#947346"/>
<path d="M82.2581 67.5027C80.1293 65.6704 77.615 64.3424 74.9027 63.6175C72.1447 62.8741 69.2946 62.5309 66.4396 62.5984C63.0316 62.6393 59.6482 63.0885 56.2748 63.5269C54.6039 63.7417 52.933 63.9565 51.2432 64.1224C49.5534 64.2884 47.8681 64.3753 46.1795 64.4811C42.808 64.6799 39.4053 64.8978 36.1304 65.7721C35.7203 65.8817 35.3107 66.0017 34.9088 66.1326L35.0334 65.965C38.2024 66.0588 41.3316 66.6386 44.438 67.2413C47.5444 67.844 50.6239 68.4676 53.7572 68.6595C55.4001 68.7596 57.0486 68.715 58.6835 68.5261C60.4491 68.3203 62.192 67.9652 63.9315 67.5834C67.1225 66.882 70.3147 66.0748 73.5899 65.8992C76.4663 65.7446 79.4416 66.0538 82.062 67.3223C82.3939 67.4818 82.714 67.6563 83.0298 67.8467C83.1065 67.8908 82.8445 68.0659 82.7624 68.0169C80.2043 66.4926 77.2043 65.9927 74.2556 66.0419C71.0052 66.1096 67.8357 66.8483 64.6689 67.5579C61.3504 68.3015 58.0146 68.9642 54.5933 68.8802C51.4582 68.8014 48.3594 68.2274 45.2875 67.6324C42.2156 67.0374 39.1096 66.3995 35.9624 66.1989C35.5665 66.1731 35.1729 66.1533 34.7757 66.142C34.6554 66.1394 34.8728 65.9851 34.9002 65.9744C38.1247 64.9335 41.5092 64.5962 44.8736 64.379C46.5835 64.265 48.2796 64.1879 49.9813 64.0525C51.6829 63.9171 53.4229 63.7177 55.1382 63.4997C58.5408 63.0641 61.9447 62.5683 65.3774 62.4371C68.299 62.288 71.2276 62.5366 74.0829 63.1763C76.8303 63.781 79.4163 64.9693 81.6657 66.6609C81.9422 66.8769 82.212 67.1026 82.4769 67.3337C82.5527 67.4027 82.2757 67.5661 82.1943 67.5099L82.2581 67.5027Z" fill="#947346"/>
<path d="M82.1076 67.431C79.6029 66.0579 76.8341 65.2365 73.987 65.022C70.9975 64.7394 67.9965 64.9528 65.0243 65.3131C61.7235 65.7128 58.441 66.2775 55.1244 66.5183C51.9604 66.7457 48.8169 66.5366 45.6618 66.2794C42.5067 66.0222 39.4075 65.7644 36.2793 66.0481C35.8979 66.0869 35.5189 66.1318 35.1404 66.187C35.0661 66.1947 35.0752 66.1455 35.1061 66.0984C35.1604 66.0409 35.2338 66.005 35.3125 65.9974C38.4183 65.5924 41.549 65.7502 44.6544 65.988C47.829 66.2412 51.0031 66.5473 54.1882 66.3925C57.5257 66.242 60.8543 65.6876 64.162 65.2606C67.1679 64.8696 70.1873 64.5859 73.2144 64.7662C76.0442 64.9351 78.8842 65.511 81.439 66.7732C81.7539 66.9252 82.0602 67.0911 82.3628 67.2655C82.4394 67.3096 82.1805 67.4836 82.0954 67.4357L82.1076 67.431Z" fill="#947346"/>
<path d="M77.1649 63.7884C74.9999 62.5344 72.9094 61.1554 70.9041 59.6586C68.8721 58.1975 66.8458 56.7237 64.6835 55.4606C62.5212 54.1975 60.2411 53.1555 57.9935 52.0799C55.7107 51.0231 53.5156 49.786 51.429 48.3803C49.3482 46.8822 47.3501 45.2722 45.4436 43.5574C45.2059 43.3509 44.9681 43.1444 44.7322 42.9337L45.0219 42.7759C46.1554 45.2239 47.9478 47.2624 49.8149 49.1947C51.5802 51.0365 53.3763 52.9576 55.5099 54.4004C57.2694 55.6017 59.2574 56.2967 61.313 56.8039C63.2523 57.2824 65.2229 57.6153 67.1389 58.1696C68.9603 58.6972 70.7521 59.4471 72.1894 60.7134C72.3646 60.8668 72.536 61.0287 72.6995 61.1972C72.7463 61.2458 72.4832 61.4179 72.4038 61.3398C71.0425 59.9527 69.2799 59.0968 67.4505 58.5125C65.5424 57.9061 63.572 57.5555 61.6147 57.1121C59.6574 56.6686 57.677 56.0656 55.9317 55.0098C53.7705 53.7041 52.0046 51.852 50.2441 50.0681C48.3628 48.1624 46.4877 46.1911 45.1934 43.8263C45.0325 43.5374 44.8767 43.2255 44.7324 42.9161C44.7004 42.8336 44.9576 42.7095 45.0209 42.7552C46.9465 44.4401 48.8764 46.1268 50.9449 47.637C52.9906 49.1072 55.16 50.3967 57.4287 51.4908C59.6765 52.5944 61.963 53.6163 64.155 54.8293C66.3253 56.0772 68.4202 57.4522 70.4287 58.9471C72.4564 60.4063 74.4809 61.8843 76.6395 63.1559C76.9027 63.3104 77.1691 63.4637 77.4415 63.6146C77.5139 63.6568 77.2593 63.8327 77.1588 63.7908L77.1649 63.7884Z" fill="#947346"/>
<path d="M78.7732 55.6994C77.6359 53.7382 76.1404 52.0083 74.3646 50.5998C72.5717 49.189 70.5348 48.1203 68.3557 47.4472C66.0722 46.7227 63.6897 46.2682 61.5322 45.1718C59.3748 44.0753 57.5166 42.3925 55.5315 40.98C53.7503 39.7133 51.7262 38.5898 49.5133 38.4104C49.2253 38.3875 48.9362 38.3821 48.6476 38.3943L48.867 38.2181C50.9481 39.6882 52.6955 41.565 54.4708 43.3783C56.2462 45.1916 58.0769 46.9483 60.3034 48.169C62.2068 49.2163 64.2968 49.8577 66.3885 50.4037C68.4801 50.9496 70.5577 51.3957 72.5957 52.0748C74.6336 52.7539 76.5104 53.6148 78.112 54.9791C78.3107 55.148 78.5045 55.3223 78.6915 55.5063C78.7654 55.5795 78.486 55.7369 78.4088 55.6825C76.8655 54.2518 75.0373 53.1642 73.0445 52.491C71.0059 51.756 68.9013 51.2853 66.807 50.7509C64.7101 50.2745 62.6676 49.5835 60.7116 48.6888C58.4873 47.6007 56.6248 45.9792 54.882 44.2411C53.0676 42.4359 51.3573 40.5097 49.3211 38.9378C49.0746 38.7453 48.8233 38.5581 48.5682 38.3794C48.4771 38.3163 48.742 38.2032 48.7834 38.2013C50.9984 38.1235 53.0812 39.0452 54.909 40.2235C56.9608 41.5365 58.7629 43.2376 60.8627 44.4933C62.9625 45.749 65.3735 46.3224 67.7255 47.0063C68.8628 47.324 69.9741 47.7287 71.0496 48.2166C72.0755 48.6991 73.0536 49.2777 73.9707 49.9446C75.8009 51.2713 77.3687 52.9272 78.5937 54.8277C78.7491 55.0661 78.8965 55.3111 79.0421 55.5603C79.0729 55.6397 78.7819 55.7944 78.7465 55.7028L78.7732 55.6994Z" fill="#947346"/>
<path d="M77.9252 54.7775C76.4781 53.2766 74.759 52.0649 72.8597 51.207C70.9312 50.3397 68.9519 49.5906 66.9327 48.9638C64.8961 48.3261 62.8998 47.5661 60.9544 46.6879C59.9676 46.2235 59.0189 45.6819 58.1173 45.0679C57.131 44.396 56.2017 43.6355 55.2845 42.8702C53.4695 41.3532 51.6613 39.7634 49.516 38.7254C49.2519 38.5959 48.9852 38.4779 48.7147 38.3683C48.644 38.3395 48.8871 38.1611 48.9974 38.1922C51.2177 39.0887 53.0934 40.6173 54.912 42.1434C56.7305 43.6696 58.4826 45.1055 60.5601 46.1767C62.4841 47.1159 64.4753 47.91 66.5173 48.5522C68.5346 49.2323 70.571 49.8804 72.5195 50.7451C74.4319 51.5521 76.1872 52.6905 77.7046 54.1078C77.8796 54.2789 78.0527 54.4542 78.2209 54.6349C78.2689 54.6866 77.9985 54.858 77.9252 54.7775Z" fill="#947346"/>
<path d="M53.3545 27.6344C50.4477 26.224 47.1643 26.1429 43.9987 25.9494C42.3894 25.8595 40.7866 25.6767 39.1982 25.4019C37.5632 25.1112 35.9374 24.7537 34.2871 24.5777C32.4578 24.3833 30.5962 24.4226 28.8676 25.0776L29.0122 24.9163C32.0262 26.1997 35.1757 27.1366 38.4004 27.7091C41.6235 28.2815 44.9003 28.4903 48.1693 28.3316C50.0109 28.2409 51.8447 28.0319 53.6594 27.706C53.8658 27.6683 53.6596 27.8605 53.5579 27.8788C50.3186 28.4646 47.023 28.6799 43.7346 28.5205C38.5696 28.279 33.4881 27.1197 28.7277 25.0967C28.643 25.0592 28.8539 24.9425 28.8722 24.9354C32.0242 23.7434 35.4177 24.4807 38.6141 25.0802C40.2381 25.3904 41.8785 25.6067 43.5272 25.7281C45.1538 25.843 46.7878 25.8953 48.4087 26.0861C50.2081 26.2521 51.9668 26.7206 53.6109 27.472C53.6871 27.5057 53.4336 27.6846 53.3283 27.6481L53.3545 27.6344Z" fill="#947346"/>
<path d="M53.9204 26.8851C53.3743 25.6917 53.7355 24.3684 54.3638 23.2998C55.0892 22.0743 56.2188 21.177 57.1365 20.0948C57.6205 19.5432 58.0254 18.9267 58.3393 18.2631C58.6473 17.5995 58.8668 16.907 59.1211 16.2045C59.3509 15.5308 59.6352 14.8769 59.9711 14.2495C60.3129 13.6495 60.7049 13.0795 61.1428 12.5457C62.1828 11.3244 63.3205 10.1899 64.5445 9.15335C64.575 9.14154 64.8254 9.02706 64.7922 9.11363C63.8293 11.7375 61.0329 13.2133 60.2494 15.9293C60.0643 16.7103 59.939 17.5044 59.8744 18.3045C59.7947 19.0408 59.6342 19.766 59.3959 20.467C58.9058 21.7818 58.1907 23.001 57.2825 24.07C56.2175 25.316 55.0603 26.48 53.8209 27.5523C53.7454 27.6201 53.4678 27.6643 53.6237 27.5232C55.7259 25.6313 57.9137 23.5799 58.9788 20.8848C59.2486 20.1957 59.4343 19.4765 59.5318 18.7427C59.6417 17.9662 59.694 17.1768 59.8633 16.4089C60.1653 15.0593 60.9445 13.964 61.8337 12.9349C62.8348 11.7783 63.9704 10.6609 64.5082 9.19548L64.759 9.15461C63.6818 10.0726 62.6661 11.0605 61.7186 12.112C60.7915 13.1747 60.0602 14.3936 59.5585 15.7121C59.0698 17.0145 58.6865 18.3534 57.8589 19.478C57.0313 20.6026 55.8602 21.5195 55.0201 22.6841C54.1799 23.8487 53.6044 25.3709 54.232 26.7294C54.2663 26.8179 53.9707 26.9605 53.9376 26.8749L53.9204 26.8851Z" fill="#947346"/>
<path d="M78.3846 55.2212C77.5071 53.38 77.631 51.2986 77.6579 49.311C77.6996 48.2816 77.6446 47.2506 77.4937 46.2313C77.2435 45.0686 76.8655 43.937 76.3666 42.8572C75.8797 41.8009 75.5 40.6984 75.233 39.5663C75.0706 38.6949 75.0062 37.808 75.041 36.9224C75.0908 35.0664 75.4412 33.2345 75.6106 31.3884C75.7919 29.4007 75.7418 27.341 74.7537 25.5496C74.7218 25.4671 74.9888 25.3322 75.0493 25.4071C76.3831 27.0401 77.0338 29.0745 77.473 31.1064C77.9506 33.2465 78.2624 35.4296 78.6383 37.5879C79.0142 39.7463 79.4334 41.944 79.7671 44.1292C79.9372 45.1247 80.0153 46.1336 80.0007 47.1433C79.9524 48.0629 79.8196 48.9759 79.6042 49.871C79.1804 51.8121 78.5685 53.7839 78.8973 55.8024C78.9138 55.9084 78.6277 56.0122 78.6028 55.948C78.3217 54.1885 78.7385 52.4468 79.1342 50.7413C79.3553 49.8611 79.5229 48.9683 79.6359 48.0677C79.7396 47.0761 79.7268 46.0756 79.5976 45.0868C79.4671 44.0065 79.2623 42.9339 79.0764 41.8645L78.4925 38.5434C78.1125 36.3656 77.7643 34.179 77.3423 32.0104C76.8961 29.7248 76.2595 27.4005 74.7615 25.5606L75.0522 25.4235C76.827 28.6945 75.6129 32.5815 75.3689 36.0475C75.2954 36.9486 75.309 37.8548 75.4095 38.7535C75.5691 39.8508 75.8752 40.9218 76.3194 41.9378C76.8133 43.0337 77.2395 44.1588 77.5955 45.307C77.8419 46.2954 77.9616 47.3112 77.9517 48.3298C77.9771 50.5887 77.6669 52.9774 78.6688 55.0761C78.703 55.1647 78.4074 55.3072 78.3743 55.2217L78.3846 55.2212Z" fill="#947346"/>
<path d="M78.4899 54.7591C77.8475 53.027 78.4015 51.1865 78.7295 49.4511C79.0578 47.6007 79.0298 45.7043 78.6471 43.8639C78.2664 41.9743 77.694 40.1238 77.2068 38.258C76.9693 37.3455 76.7544 36.4278 76.598 35.498C76.4493 34.5469 76.3649 33.587 76.3452 32.6247C76.2935 30.4427 76.3859 27.9627 74.8374 26.2372C74.7882 26.1825 75.0586 26.0111 75.1319 26.0916C76.4822 27.5952 76.5742 29.7089 76.6197 31.6299C76.6229 32.6157 76.6764 33.6007 76.7798 34.5812C76.9046 35.5416 77.0868 36.4937 77.3257 37.4323C78.2179 41.0695 79.6978 44.7566 79.1584 48.5651C78.8732 50.5473 78.0516 52.6389 78.7855 54.6165C78.821 54.7081 78.5218 54.8415 78.4899 54.7591Z" fill="#947346"/>
<path d="M101.126 38.3161C100.857 36.7137 100.958 35.0905 100.93 33.4756C100.923 31.7697 100.603 30.0793 99.9851 28.489C99.6269 27.601 99.1733 26.7544 98.6324 25.9643L98.928 25.8218C99.2141 27.467 99.1358 29.1409 99.2114 30.8044C99.2724 32.5115 99.6133 34.1972 100.22 35.7941C100.576 36.705 101.02 37.5788 101.546 38.4031C101.577 38.4825 101.305 38.6332 101.251 38.5487C100.323 37.092 99.6548 35.485 99.2763 33.7995C98.914 32.1838 98.8997 30.5247 98.8598 28.8719C98.8534 27.8975 98.777 26.9248 98.6312 25.9612C98.6176 25.8717 98.87 25.7353 98.9268 25.8187C99.8814 27.2112 100.557 28.7755 100.917 30.4251C101.267 32.0456 101.227 33.6907 101.23 35.34C101.215 36.2871 101.279 37.2339 101.421 38.1706C101.437 38.2766 101.152 38.3833 101.126 38.3161Z" fill="#947346"/>
<path d="M113.736 64.4561C112.872 61.9176 111.895 59.3844 110.448 57.114C109.089 54.9887 107.291 53.2542 105.321 51.699C103.422 50.2005 101.411 48.8473 99.5436 47.3048C97.5988 45.682 95.8706 43.8156 94.4017 41.7515C92.8977 39.5922 91.5139 37.3516 90.2565 35.0398L89.782 34.1945L90.0765 34.0489C91.3224 36.5517 92.5379 39.0664 93.8198 41.5624C95.0405 44.0244 96.3984 46.4159 97.8871 48.7257C98.6089 49.8422 99.4552 50.8731 100.41 51.7985C101.33 52.6714 102.366 53.4083 103.357 54.1939C104.349 54.9725 105.248 55.8614 106.039 56.8435C106.862 57.8734 107.613 58.97 108.545 59.9015C110.163 61.5159 112.293 62.5597 113.738 64.3534C113.92 64.5719 114.088 64.8011 114.242 65.0397C114.272 65.1161 114 65.2668 113.947 65.1822C112.701 63.206 110.548 62.0835 108.824 60.5663C107.908 59.7138 107.077 58.7747 106.342 57.7622C105.571 56.7075 104.689 55.7398 103.709 54.876C102.743 54.056 101.706 53.3265 100.739 52.5138C99.7697 51.6764 98.9029 50.7269 98.1568 49.6853C97.3865 48.6029 96.6753 47.4796 96.0263 46.3203C95.3261 45.1093 94.6581 43.8823 94.0104 42.644C92.7016 40.169 91.491 37.6489 90.25 35.1407C90.093 34.8257 89.9402 34.5125 89.7844 34.2006C89.7513 34.1151 90.0445 33.9664 90.0788 34.055C91.3498 36.3234 92.6434 38.6322 94.118 40.7832C95.5639 42.9491 97.2829 44.9196 99.2324 46.6456C101.069 48.2279 103.071 49.5919 104.975 51.0674C106.879 52.5428 108.729 54.141 110.147 56.1174C111.724 58.3164 112.789 60.8329 113.687 63.3689C113.805 63.6743 113.902 63.988 114.011 64.3146C114.047 64.4093 113.747 64.5396 113.716 64.4602L113.736 64.4561Z" fill="#947346"/>
<path d="M113.592 64.3748C112.697 62.2734 111.448 60.3419 109.898 58.665C108.384 56.9472 106.725 55.3627 105.053 53.7975C101.737 50.6699 98.3414 47.6156 95.5724 43.9604C93.9493 41.8501 92.5442 39.5805 91.3787 37.1866C91.3444 37.0981 91.6401 36.9556 91.6732 37.0411C93.6959 41.2696 96.5813 45.0624 99.8508 48.3974C103.038 51.6555 106.577 54.5735 109.657 57.9258C111.377 59.7956 112.932 61.8556 113.889 64.228C113.925 64.3197 113.627 64.4561 113.595 64.3736L113.592 64.3748Z" fill="#947346"/>
<path d="M115.489 69.0033C115.082 66.7023 115.465 64.3661 115.978 62.1098C116.539 59.6272 117.137 57.1554 117.656 54.6644C118.176 52.1735 118.698 49.7695 118.812 47.2739C118.926 44.8488 118.579 42.4475 118.194 40.0501C117.773 37.4036 117.328 34.7665 117.433 32.0846C117.437 31.9953 117.727 31.8727 117.739 31.9665C117.91 34.8158 118.442 37.6321 119.32 40.3483C120.151 42.9029 121.424 45.2936 122.227 47.8588C122.641 49.0868 122.868 50.3698 122.901 51.665C122.874 52.9588 122.676 54.2432 122.313 55.4851C121.997 56.6892 121.668 57.8877 121.387 59.0994C121.131 60.2519 120.851 61.4138 120.474 62.5327C120.126 63.6461 119.618 64.7028 118.966 65.6696C118.197 66.6957 117.29 67.6113 116.273 68.3908L115.498 69.0101C115.456 69.0442 115.344 69.119 115.288 69.0916C115.232 69.0642 115.261 69.0213 115.299 68.9853C116.361 68.1946 117.34 67.298 118.221 66.3092C118.972 65.3885 119.561 64.3469 119.964 63.2286C120.364 62.1136 120.69 60.9737 120.941 59.8161C121.223 58.622 121.513 57.4316 121.834 56.2501C122.207 55.025 122.458 53.7657 122.582 52.4908C122.652 51.184 122.5 49.8748 122.135 48.6179C121.428 46.0824 120.158 43.7185 119.275 41.2296C118.36 38.6117 117.77 35.8913 117.519 33.1298C117.492 32.7889 117.46 32.4255 117.44 32.075L117.745 31.9569C117.555 36.7753 119.161 41.4424 119.148 46.2482C119.143 48.7086 118.675 51.1235 118.181 53.5199C117.659 56.0504 117.09 58.5675 116.498 61.0795C115.906 63.5915 115.338 66.2382 115.797 68.8384C115.816 68.9432 115.528 69.0512 115.502 68.984L115.489 69.0033Z" fill="#947346"/>
<path d="M115.943 67.9917C117.403 66.5169 117.854 64.4107 118.153 62.4268C118.318 61.3304 118.444 60.2069 118.716 59.1427C118.949 58.1676 119.306 57.2145 119.623 56.2841C119.975 55.3204 120.24 54.327 120.414 53.3158C120.559 52.2237 120.541 51.1159 120.359 50.0289C120.197 48.9117 119.954 47.8046 119.735 46.6953C119.503 45.5278 119.273 44.3572 119.046 43.1833C118.525 40.5214 118.015 37.859 117.515 35.1961C117.496 35.0913 117.784 34.9833 117.81 35.0505C118.27 37.4478 118.73 39.8451 119.19 42.2423C119.421 43.443 119.651 44.6417 119.881 45.8383C120.109 46.9896 120.358 48.1401 120.553 49.2972C120.762 50.3763 120.835 51.4773 120.769 52.5744C120.669 53.5742 120.452 54.5587 120.123 55.5078C119.802 56.4923 119.441 57.4538 119.155 58.446C118.866 59.5224 118.652 60.6179 118.516 61.7243C118.196 63.9342 117.809 66.3245 116.169 67.9779C116.115 68.0374 116.041 68.0749 115.961 68.0832C115.908 68.0753 115.865 68.0535 115.926 67.9946L115.943 67.9917Z" fill="#947346"/>
<path d="M112.101 90.4941C111.119 87.956 110.772 85.2489 110.455 82.5622C110.129 79.7981 109.811 76.9923 108.808 74.3742C108.315 73.0667 107.624 71.8429 106.758 70.7462C105.901 69.7094 104.969 68.7368 103.969 67.8363C103.021 66.946 102.064 66.0696 101.192 65.1041C100.321 64.1387 99.5506 63.1374 98.7827 62.1141C97.2516 60.0799 95.7503 57.9779 93.7836 56.3229C93.5452 56.1238 93.2987 55.9312 93.0474 55.744L93.3371 55.5862C95.0172 57.4434 96.1908 59.6687 97.3397 61.8755C97.9058 62.9663 98.4719 64.0571 99.0985 65.114C99.7543 66.2193 100.481 67.2797 101.221 68.3312C102.687 70.4151 104.226 72.4708 105.329 74.7761C106.484 77.16 107.209 79.7133 108.139 82.1876C108.657 83.5901 109.282 84.9508 110.009 86.2575C110.739 87.5655 111.558 88.8186 112.377 90.0747C112.422 90.1451 112.137 90.3048 112.083 90.2203C110.618 87.9776 109.197 85.7184 108.194 83.2269C107.191 80.7354 106.492 78.2243 105.427 75.7989C104.395 73.4415 102.937 71.3333 101.463 69.2559C100.707 68.2103 99.9721 67.1534 99.2839 66.0642C98.6237 65.0203 98.0332 63.9389 97.4617 62.8432C96.1576 60.3804 94.923 57.8345 93.0394 55.7506C92.9859 55.694 93.2585 55.5464 93.3279 55.5897C95.3746 57.0978 96.9388 59.1087 98.453 61.1355C99.2252 62.1606 99.9863 63.1935 100.812 64.1766C101.677 65.1888 102.601 66.148 103.58 67.0491C104.528 67.9395 105.489 68.8178 106.362 69.7863C107.288 70.7966 108.059 71.9381 108.652 73.1738C109.847 75.7071 110.278 78.5149 110.61 81.259C110.943 84.003 111.198 86.7662 112.057 89.4014C112.157 89.714 112.269 90.0218 112.396 90.3486C112.431 90.4402 112.133 90.5766 112.101 90.4941Z" fill="#947346"/>
<path d="M111.571 89.2523C110.377 86.8629 109.451 84.3487 108.81 81.7557C108.477 80.462 108.21 79.1539 107.936 77.8481C107.707 76.5626 107.349 75.3031 106.87 74.0885C105.896 71.8071 104.082 70.0858 102.433 68.2905C101.631 67.4185 100.889 66.4939 100.211 65.5227C99.5222 64.532 98.8868 63.5067 98.2574 62.479C96.8452 60.181 95.4127 57.8487 93.4483 55.9822C93.3713 55.9101 93.6495 55.7497 93.7309 55.806C97.2522 59.1209 98.9716 63.8075 102.111 67.4317C103.692 69.2604 105.555 70.8922 106.729 73.019C108.009 75.3544 108.28 78.0941 108.889 80.6468C109.546 83.566 110.55 86.3962 111.879 89.0771C111.912 89.1626 111.619 89.3113 111.584 89.2227L111.571 89.2523Z" fill="#947346"/>
<path d="M112.422 89.3376C112.454 87.4366 112.88 85.5633 113.673 83.836C114.466 82.1087 115.607 80.5649 117.027 79.302C118.696 77.8235 120.791 76.9811 122.539 75.616C124.122 74.3779 125.1 72.6543 125.972 70.8911C126.918 69.0113 127.819 67.0538 129.389 65.5997C129.429 65.5844 129.695 65.4816 129.628 65.5812C128.417 67.2475 128.256 69.3607 128.056 71.3451C127.976 72.367 127.804 73.3796 127.543 74.3706C127.288 75.2739 126.916 76.1396 126.435 76.9454C125.948 77.7628 125.346 78.5057 124.647 79.1511C123.874 79.8719 123.02 80.4835 122.227 81.1804C121.434 81.8903 120.717 82.6798 120.087 83.5365C119.463 84.3981 118.777 85.2129 118.034 85.9745C117.202 86.7797 116.262 87.4661 115.242 88.0141C114.731 88.2797 114.207 88.519 113.671 88.7311C113.101 88.9372 112.579 89.2587 112.139 89.6754C112.084 89.733 112.011 89.7689 111.932 89.7764C111.877 89.7697 111.836 89.7468 111.899 89.6909C112.6 88.9632 113.575 88.6911 114.465 88.2727C115.435 87.8311 116.341 87.2618 117.16 86.5798C117.977 85.8745 118.713 85.0806 119.356 84.2128C119.964 83.3727 120.626 82.5724 121.336 81.8165C122.083 81.0711 122.931 80.4442 123.74 79.7694C124.527 79.1384 125.224 78.4018 125.811 77.5804C126.948 75.9321 127.482 74.0397 127.704 72.0677C127.947 69.8667 128.011 67.5134 129.36 65.6602L129.599 65.6417C126.803 68.234 126.241 72.3743 123.482 75.0158C121.85 76.5817 119.701 77.41 117.92 78.7735C116.414 79.9392 115.175 81.4151 114.288 83.1015C113.289 84.9893 112.754 87.0888 112.729 89.2256C112.726 89.318 112.429 89.4295 112.424 89.3437L112.422 89.3376Z" fill="#947346"/>
<path d="M112.358 89.3167C113.916 87.9513 114.996 86.1637 116.193 84.4888C116.757 83.6692 117.384 82.8947 118.068 82.1722C118.77 81.4744 119.515 80.8211 120.299 80.2161C121.849 78.991 123.501 77.8036 124.648 76.1622C125.678 74.6817 126.158 72.9298 126.63 71.2124C127.138 69.3544 127.672 67.4444 128.912 65.925C128.964 65.8593 129.272 65.7856 129.161 65.906C126.879 68.7031 127.065 72.635 125.218 75.6573C124.187 77.3451 122.615 78.5858 121.082 79.7904C120.293 80.4082 119.501 81.0272 118.769 81.7108C118.032 82.4158 117.362 83.1878 116.768 84.0168C115.427 85.8457 114.272 87.8453 112.548 89.3554C112.471 89.4202 112.191 89.4656 112.351 89.3264L112.358 89.3167Z" fill="#947346"/>
<path d="M98.7447 92.7388C96.4047 91.1064 94.3408 89.1095 92.6314 86.8241C90.865 84.5236 89.5533 81.9072 88.7668 79.1152C88.3964 77.7332 88.2161 76.3071 88.2311 74.8765C88.2844 73.5017 88.4481 72.1335 88.7207 70.7852C88.9931 69.4582 89.1761 68.1144 89.2685 66.7627C89.2943 65.2849 89.0899 63.8119 88.6625 62.3967C88.2334 60.9839 87.9192 59.5388 87.7229 58.0754C87.576 56.6487 87.6167 55.2091 87.8439 53.7932C87.8999 53.4484 87.9674 53.1062 88.0422 52.7647C88.0613 52.6871 88.3374 52.5486 88.3473 52.6466C88.4275 55.5726 89.8568 58.2047 91.0464 60.8066C91.6797 62.107 92.1755 63.4699 92.5258 64.8732C92.7967 66.1618 92.8861 67.4819 92.7915 68.7951C92.6328 71.4483 91.9693 74.03 91.7778 76.6889C91.6703 78.0783 91.7398 79.4758 91.9844 80.8479C92.2445 82.2367 92.6703 83.5894 93.2528 84.8768C94.4516 87.4752 96.0992 89.8417 98.1198 91.8675C98.3824 92.1381 98.653 92.4021 98.9266 92.6649C99.0006 92.7381 98.7223 92.8985 98.644 92.841C96.5365 90.8763 94.7721 88.5727 93.4239 86.0257C92.1011 83.5352 91.4125 80.7571 91.4191 77.9375C91.476 75.257 92.1345 72.6351 92.4142 69.9771C92.5765 68.6424 92.5748 67.2926 92.409 65.958C92.1803 64.5468 91.7661 63.172 91.1771 61.8693C90.0521 59.2529 88.5246 56.7116 88.1497 53.8399C88.1041 53.4834 88.0765 53.1249 88.0671 52.7656L88.3722 52.6475C88.0576 54.0346 87.9242 55.4568 87.9753 56.8785C88.0441 58.3529 88.2849 59.8144 88.6927 61.2331C89.0801 62.66 89.4974 64.0823 89.5627 65.5742C89.5879 66.9247 89.4692 68.2739 89.2087 69.5989C88.9797 70.9378 88.7071 72.2725 88.5867 73.6291C88.4597 75.0569 88.5371 76.4957 88.8164 77.902C89.4253 80.7331 90.6017 83.4115 92.2745 85.7752C93.8955 88.1399 95.888 90.2269 98.1747 91.9551C98.4562 92.1657 98.7396 92.3721 99.0279 92.573C99.105 92.6274 98.8377 92.7977 98.7452 92.7492L98.7447 92.7388Z" fill="#947346"/>
<path d="M97.338 91.6784C95.3997 89.6215 93.7248 87.3311 92.3519 84.8603C91.0435 82.4799 90.2307 79.8591 89.9626 77.1563C89.8621 75.8489 89.9099 74.5344 90.1052 73.238C90.2803 71.9866 90.5429 70.7436 90.6894 69.4999C90.8756 68.2341 90.8649 66.947 90.6577 65.6842C90.3934 64.2763 89.8183 62.9537 89.2735 61.6369C88.7091 60.3672 88.2909 59.0375 88.0269 57.6733C87.8056 56.3695 87.7733 55.0407 87.931 53.7279C87.9685 53.4079 88.0315 53.0814 88.0817 52.767C88.0998 52.6687 88.3967 52.5748 88.3868 52.6489C88.1268 53.9545 88.057 55.291 88.1793 56.6169C88.3317 57.9796 88.6693 59.3153 89.1828 60.5868C89.6982 61.9185 90.3198 63.2161 90.7102 64.5962C91.051 65.8294 91.1749 67.1124 91.0763 68.3878C90.8971 70.9156 90.1608 73.3815 90.2013 75.9331C90.2904 78.6596 90.9671 81.3351 92.1849 83.7765C93.4486 86.3046 95.05 88.649 96.9452 90.7453C97.1763 91.007 97.4075 91.2687 97.6447 91.5281C97.6927 91.5797 97.4223 91.7511 97.349 91.6706L97.338 91.6784Z" fill="#947346"/>
<path d="M90.7898 86.7608C88.8279 85.227 87.1077 83.4204 85.2934 81.7241C83.5212 80.0641 81.6189 78.4756 79.3819 77.4907C76.9386 76.4171 74.2784 76.3055 71.6443 76.2434C70.3285 76.2154 69.0136 76.2081 67.7025 76.0835C66.2723 75.9234 64.8547 75.6648 63.4598 75.3096C62.0045 74.9464 60.523 74.6979 59.0291 74.5663C57.5233 74.4746 56.0138 74.4623 54.5068 74.5293L53.4066 74.5689L53.6248 74.3895C54.1589 74.7175 54.7518 74.9378 55.3703 75.0379C56.0013 75.1729 56.6306 75.3121 57.257 75.4805C58.4905 75.8214 59.703 76.244 60.9044 76.6921C63.3397 77.6002 65.7373 78.6283 68.2486 79.3068C69.4796 79.6369 70.7345 79.8698 72.0017 80.0033C73.2478 80.132 74.5014 80.1806 75.7556 80.2395C78.1971 80.348 80.6862 80.4978 83.0137 81.3176C85.5161 82.1998 87.6224 83.8709 89.6103 85.5808C89.8608 85.7929 90.1064 86.0104 90.3538 86.2237C90.4315 86.2884 90.1557 86.4549 90.0712 86.3998C88.0846 84.6753 86.0505 82.9096 83.6169 81.8427C81.3176 80.8328 78.7923 80.5987 76.3068 80.4581C73.8212 80.3175 71.2697 80.2691 68.8023 79.686C66.3349 79.1029 63.9144 78.1153 61.5242 77.1967C60.2908 76.7294 59.0611 76.2713 57.808 75.8889C57.1836 75.6986 56.5517 75.5253 55.914 75.3823C55.3192 75.2729 54.731 75.1301 54.1522 74.9545C53.8668 74.8619 53.5952 74.7307 53.3453 74.5645C53.2511 74.5026 53.5191 74.3883 53.5605 74.3864C55.0516 74.3325 56.542 74.2858 58.0303 74.3243C59.5385 74.3728 61.0393 74.5583 62.5141 74.8785C63.9721 75.1921 65.4164 75.5882 66.8974 75.7981C68.2381 75.9658 69.5875 76.0533 70.9384 76.0601C73.5447 76.1048 76.2159 76.0998 78.7052 76.966C81.0383 77.7732 83.0327 79.2733 84.8483 80.9095C86.6639 82.5457 88.4138 84.411 90.3324 86.0143C90.5751 86.2153 90.8154 86.4102 91.0631 86.6059C91.1414 86.6633 90.8698 86.8317 90.7957 86.7761L90.7898 86.7608Z" fill="#947346"/>
<path d="M90.0749 86.2825C88.258 84.5377 86.2801 82.9692 84.1676 81.5979C82.0381 80.2143 79.6778 79.2247 77.1992 78.6763C74.5721 78.1338 71.8847 78.1241 69.2266 77.8641C67.9202 77.7449 66.6244 77.5293 65.3496 77.219C64.1587 76.9249 62.9882 76.5563 61.8134 76.1857C59.451 75.439 57.0513 74.6681 54.5578 74.5341C54.239 74.5171 53.9206 74.5103 53.5997 74.5151C53.429 74.518 53.6831 74.3318 53.767 74.331C56.2502 74.2934 58.6609 74.9476 61.0113 75.6814C63.4549 76.4388 65.8707 77.2421 68.4077 77.57C71.0831 77.9111 73.7951 77.8938 76.4599 78.3162C78.9749 78.7377 81.3913 79.6191 83.588 80.9162C85.7633 82.2185 87.7961 83.7459 89.6528 85.4731C89.8857 85.685 90.1143 85.895 90.3453 86.1111C90.418 86.1812 90.1398 86.3416 90.0627 86.2872L90.0749 86.2825Z" fill="#947346"/>
<path d="M53.4656 97.2331C50.9809 96.9587 48.729 95.7724 46.7686 94.2696C44.7046 92.6804 42.9506 90.75 41.1698 88.8686C39.2917 86.8984 37.316 84.9485 34.9119 83.6314C32.5077 82.3144 29.6851 81.8196 27.0365 81.0222C25.6979 80.6292 24.4035 80.098 23.1745 79.4372C21.9045 78.7256 20.6774 77.94 19.4994 77.0844L18.5997 76.4458L18.8882 76.285C19.5998 77.5794 20.7771 78.5003 21.9789 79.3029C23.0955 80.0577 24.2682 80.7311 25.4491 81.3803C27.8121 82.6816 30.2436 83.8968 32.4204 85.5055C33.5411 86.332 34.5707 87.2755 35.4919 88.3201C36.5233 89.4802 37.4713 90.7147 38.5664 91.8219C40.3378 93.5583 42.4451 94.914 44.7588 95.8055C47.0724 96.697 49.5435 97.1055 52.02 97.006C52.327 96.9925 52.6335 96.9687 52.9377 96.9388C53.0119 96.9311 53.0035 96.973 52.9708 97.0243C52.9176 97.0834 52.8436 97.1196 52.7643 97.1253C50.2946 97.3556 47.8035 97.0807 45.4425 96.3174C43.0816 95.5542 40.9 94.3184 39.0304 92.6854C37.9741 91.7054 36.9933 90.6469 36.0963 89.519C35.1555 88.3549 34.1062 87.2829 32.9627 86.3175C30.8497 84.5928 28.422 83.3235 26.0406 82.0293C24.8325 81.3731 23.6292 80.7116 22.468 79.9775C21.3069 79.2435 20.0738 78.4143 19.1809 77.313C18.9578 77.0362 18.759 76.7408 18.5865 76.4299C18.5534 76.3443 18.8068 76.2287 18.875 76.269C21.2291 77.946 23.6071 79.6033 26.3641 80.5449C28.9662 81.4306 31.7254 81.8341 34.2383 82.9791C36.7513 84.124 38.7329 85.9171 40.6112 87.824C42.4894 89.7309 44.1978 91.7247 46.2259 93.4296C48.1288 95.0284 50.3165 96.4116 52.7752 96.8998C53.0827 96.9599 53.3938 97.0116 53.7009 97.0437C53.7768 97.0494 53.7293 97.117 53.6883 97.1469C53.6315 97.2007 53.5559 97.23 53.4778 97.2284L53.4656 97.2331Z" fill="#947346"/>
<path d="M52.5405 97.4262C48.8144 96.6696 45.3463 94.9622 42.4726 92.4697C41.4817 91.6136 40.5608 90.6847 39.6448 89.7504C37.7823 87.8479 35.928 85.9212 33.6305 84.5172C31.333 83.1133 28.7361 82.2502 26.25 81.2107C23.915 80.2357 21.5841 79.0624 19.7845 77.241C19.5621 77.0109 19.3528 76.7724 19.1566 76.5252C19.1092 76.4663 19.382 76.301 19.4511 76.3796C21.1115 78.3673 23.4059 79.6636 25.7415 80.6946C28.1756 81.7718 30.7237 82.5906 33.0707 83.8595C34.2283 84.4884 35.3179 85.2352 36.3223 86.0881C37.3189 86.9316 38.2447 87.8551 39.1564 88.7875C40.9859 90.6501 42.7958 92.5343 44.9797 93.9892C47.082 95.3891 49.4093 96.4164 51.8594 97.026C52.1635 97.105 52.4703 97.1724 52.7789 97.2355C52.8971 97.26 52.6424 97.4359 52.5557 97.4203L52.5405 97.4262Z" fill="#947346"/>
<path d="M84.1379 94.6985C81.3637 94.7819 78.707 93.6645 76.3728 92.2291C73.7621 90.6233 71.4527 88.5813 68.7638 87.0725C66.1663 85.5914 63.2836 84.8144 60.3943 84.1382C58.9529 83.8041 57.5088 83.4992 56.073 83.1068C54.7194 82.7457 53.396 82.2992 52.0762 81.8443C49.4816 80.9417 46.7692 79.9793 43.9782 80.1641C43.6265 80.1868 43.2765 80.2296 42.9298 80.2925L43.091 80.1107C48.8737 81.631 54.368 84.0923 59.3541 87.3961C61.8693 89.0634 64.1839 91.0191 66.7291 92.6187C67.9668 93.4265 69.2863 94.1012 70.6655 94.6315C72.0138 95.1286 73.4158 95.4652 74.8425 95.6346C77.6928 95.9694 80.5809 95.7235 83.3329 94.9117C83.6864 94.81 84.0333 94.7003 84.3798 94.5802C84.5872 94.4999 84.4905 94.6849 84.3581 94.7326C81.6613 95.6686 78.8094 96.0762 75.9579 95.9333C73.0863 95.7743 70.2881 94.9636 67.7749 93.5625C65.0955 92.0781 62.7514 90.0916 60.2529 88.3406C55.2881 84.8638 49.7798 82.2389 43.9543 80.5737C43.5951 80.4704 43.2309 80.3726 42.8727 80.29C42.7437 80.2557 42.9919 80.1174 43.0351 80.1113C45.7509 79.6324 48.4453 80.3489 51.0118 81.2063C52.3584 81.6578 53.6874 82.1548 55.0453 82.5634C56.4032 82.9719 57.9026 83.3292 59.3306 83.665C62.1794 84.3182 65.0679 84.956 67.7224 86.2218C70.5401 87.5649 72.931 89.5999 75.5014 91.3373C77.8087 92.9025 80.3958 94.2751 83.2177 94.4963C83.5712 94.5264 83.9262 94.5355 84.2807 94.5238C84.4515 94.5209 84.1973 94.7071 84.1147 94.711L84.1379 94.6985Z" fill="#947346"/>
<path d="M82.2526 94.8487C79.6299 94.8338 77.0297 94.3607 74.569 93.4506C71.9429 92.4759 69.6031 90.9443 67.2611 89.4347C66.0694 88.6668 64.8654 87.9037 63.6221 87.2295C62.3789 86.5553 61.1447 85.9408 59.8743 85.3685C57.3202 84.2079 54.6662 83.2334 52.0067 82.3172C50.6712 81.8578 49.3283 81.4154 47.9792 80.9754C46.7259 80.565 45.4185 80.0877 44.0773 80.1573C43.7429 80.1746 43.4118 80.232 43.0911 80.3284C42.8777 80.3934 42.975 80.2188 43.1128 80.176C44.3534 79.8011 45.6326 80.0154 46.8501 80.3694C48.1633 80.7531 49.4563 81.2114 50.7513 81.6478C53.4316 82.5453 56.0975 83.4871 58.7027 84.5893C61.3202 85.6795 63.8459 86.9791 66.2549 88.4756C68.6619 89.9811 70.9894 91.6439 73.5959 92.7948C76.0562 93.8667 78.6893 94.4857 81.3685 94.622C81.7245 94.6353 82.0639 94.6514 82.4121 94.6536C82.5841 94.6537 82.3329 94.8387 82.2479 94.8365L82.2526 94.8487Z" fill="#947346"/>
<path d="M35.3001 105.968C33.2968 106.575 31.2431 107.187 29.1296 107.138C27.0162 107.089 25.1343 106.251 23.1326 105.81C22.0816 105.602 21.0129 105.497 19.9417 105.497C18.8882 105.507 17.8353 105.438 16.7921 105.29C15.0186 104.986 13.3854 104.193 11.7855 103.404C9.96613 102.51 8.11499 101.579 6.07649 101.343L6.29967 101.158C10.1348 101.858 13.993 100.814 17.8444 100.967C21.782 101.125 25.3223 102.912 29.0106 104.094C31.2912 104.785 33.6236 105.291 35.9851 105.608C36.104 105.625 35.8505 105.804 35.7619 105.793C33.6601 105.504 31.5803 105.072 29.5367 104.501C27.6625 103.955 25.8537 103.215 24.0148 102.561C22.1825 101.86 20.2673 101.4 18.3172 101.191C16.3726 101.035 14.4254 101.233 12.4871 101.401C10.3589 101.585 8.20393 101.728 6.08683 101.343C5.96555 101.319 6.22988 101.15 6.31001 101.158C9.90998 101.576 12.7949 104.063 16.249 104.938C18.2687 105.453 20.3559 105.171 22.411 105.451C24.401 105.734 26.2544 106.562 28.2365 106.852C30.6608 107.206 33.0429 106.508 35.3394 105.816C35.5438 105.737 35.4555 105.925 35.3165 105.965L35.3001 105.968Z" fill="#947346"/>
<path d="M34.732 105.851C32.9667 106.081 31.1793 106.089 29.4119 105.873C27.664 105.641 25.9471 105.215 24.2929 104.603C22.5738 103.986 20.8596 103.319 19.0345 103.126C17.2094 102.934 15.3016 103.089 13.4418 102.907C11.3167 102.7 9.2503 102.12 7.19967 101.544C7.07789 101.51 7.33985 101.335 7.42284 101.359C9.22386 101.911 11.0607 102.339 12.9203 102.638C14.7709 102.887 16.6304 102.761 18.4849 102.875C19.4056 102.93 20.3185 103.078 21.2096 103.317C22.0615 103.542 22.8908 103.835 23.7194 104.136C25.3979 104.783 27.1339 105.268 28.9039 105.585C30.8886 105.897 32.9073 105.924 34.8992 105.667C34.9663 105.641 34.9663 105.704 34.9323 105.752C34.8774 105.811 34.8028 105.847 34.7228 105.854L34.732 105.851Z" fill="#947346"/>
<path d="M35.7194 105.683C33.4936 105.171 31.4916 103.751 29.9225 102.136C29.6742 101.889 29.4406 101.627 29.2231 101.353C29.0234 101.149 28.9082 100.878 28.9008 100.592C28.9064 100.517 29.1455 100.382 29.2059 100.474C29.4972 100.955 29.7916 101.435 30.0829 101.915C30.1289 101.989 29.841 102.143 29.7873 102.058C29.4929 101.578 29.2016 101.098 28.9072 100.618L29.2123 100.5C29.2212 100.761 29.326 101.009 29.5067 101.197C29.686 101.426 29.8773 101.645 30.0799 101.853C30.5068 102.302 30.9597 102.724 31.4365 103.119C32.3085 103.85 33.2722 104.462 34.3031 104.942C34.8332 105.188 35.3869 105.38 35.9557 105.514C36.0751 105.542 35.8205 105.717 35.7326 105.699L35.7194 105.683Z" fill="#947346"/>
<path d="M18.1221 114.128C14.7842 116.28 11.4093 118.482 8.60476 121.324C7.22198 122.706 6.0363 124.272 5.08123 125.978C4.08577 127.793 3.4391 129.775 2.82127 131.731C2.14287 133.894 1.49462 136.08 0.461634 138.106L0.182003 138.172C2.35333 134.999 5.14498 132.342 7.70454 129.511C9.01723 128.08 10.2339 126.564 11.3465 124.972C12.4432 123.363 13.4543 121.697 14.3754 119.982C15.4342 118.041 16.4121 116.054 17.3869 114.068C17.4267 113.989 17.7267 113.894 17.6708 114.004C15.9417 117.521 14.201 121.054 12.025 124.323C10.9612 125.914 9.79002 127.43 8.51969 128.861C7.25429 130.296 5.91544 131.668 4.61636 133.07C3.10855 134.644 1.71886 136.328 0.458574 138.107C0.419029 138.168 0.119337 138.291 0.178958 138.173C2.05814 134.481 2.64309 130.283 4.50957 126.586C6.29304 123.037 9.23208 120.234 12.3796 117.871C14.1905 116.513 16.0869 115.277 17.9881 114.053C18.1056 113.976 18.3192 114.002 18.1191 114.129L18.1221 114.128Z" fill="#947346"/>
<path d="M17.4046 114.848C14.816 117.504 12.2242 120.161 9.83052 122.995C7.40914 125.827 5.27673 128.895 3.46504 132.153C2.43139 134.014 1.52187 135.915 0.646734 137.841C0.610042 137.918 0.312434 138.019 0.362888 137.905C1.87571 134.45 3.68308 131.133 5.76496 127.989C7.89017 124.958 10.2395 122.09 12.7932 119.411C14.2225 117.874 15.6898 116.372 17.1559 114.867C17.1818 114.837 17.2134 114.813 17.2488 114.795C17.2843 114.778 17.3229 114.768 17.3624 114.766C17.4145 114.774 17.4581 114.796 17.3955 114.851L17.4046 114.848Z" fill="#947346"/>
<path d="M63.9151 99.587C60.8547 99.6197 57.6281 100.075 55.0216 101.797C52.5778 103.414 51.1301 106.035 49.3033 108.249C47.4765 110.463 45.072 112.163 42.6584 113.74C40.1794 115.356 37.6461 116.941 35.6151 119.107C33.6142 121.234 32.0934 123.758 30.8044 126.364C30.6447 126.685 30.4893 127.009 30.3351 127.336L30.0956 127.351C32.3269 125.394 34.5782 123.458 36.8496 121.544C39.1209 119.63 41.4062 117.74 43.7054 115.874C45.9919 114.023 48.2779 112.162 50.6549 110.427C51.8369 109.565 53.0423 108.737 54.2878 107.967C55.5332 107.197 56.8135 106.526 58.0642 105.778C60.2592 104.461 62.4346 102.822 63.516 100.423C63.6443 100.137 63.7544 99.8433 63.8457 99.5436C63.8735 99.4521 64.1667 99.3667 64.1508 99.4255C63.4202 101.815 61.5632 103.616 59.5499 104.985C58.3349 105.807 57.0458 106.509 55.7734 107.237C54.5011 107.965 53.2493 108.755 52.0383 109.596C49.5845 111.305 47.2568 113.203 44.9252 115.064C42.5936 116.926 40.2754 118.849 37.9759 120.775C35.6765 122.701 33.4041 124.651 31.1449 126.618L30.2819 127.37C30.2483 127.383 29.9851 127.51 30.0404 127.39C31.3015 124.721 32.7618 122.122 34.6869 119.863C36.612 117.605 39.0811 115.89 41.5754 114.268C44.0696 112.646 46.6754 110.994 48.6749 108.71C50.5729 106.536 51.9772 103.892 54.309 102.122C56.7646 100.255 59.8861 99.5732 62.9107 99.4209C63.3034 99.4023 63.6955 99.391 64.0868 99.387C64.2576 99.3841 64.0077 99.5722 63.9196 99.5712L63.9151 99.587Z" fill="#947346"/>
<path d="M63.9914 99.5118C62.2147 101.583 59.6873 102.73 57.2991 103.928C56.0254 104.543 54.8036 105.26 53.6459 106.073C52.4946 106.923 51.3951 107.841 50.3532 108.823C48.2303 110.779 46.194 112.814 43.8281 114.478C41.3851 116.196 38.736 117.636 36.4827 119.618C34.3043 121.539 32.5749 123.905 30.9873 126.31L30.4009 127.215C30.3789 127.247 30.3508 127.273 30.3183 127.294C30.2859 127.314 30.2497 127.328 30.2118 127.334C30.1783 127.347 30.0786 127.343 30.1212 127.281C31.6609 124.87 33.2951 122.485 35.3361 120.462C37.4404 118.376 39.9833 116.861 42.441 115.253C43.6971 114.434 44.9016 113.539 46.0477 112.572C47.1413 111.636 48.1813 110.643 49.228 109.659C50.2746 108.674 51.326 107.702 52.4464 106.808C53.53 105.937 54.6893 105.165 55.9106 104.501C58.3224 103.192 60.9973 102.181 63.0297 100.281C63.2789 100.044 63.5158 99.7936 63.7396 99.532C63.7956 99.4682 64.1026 99.3915 63.9883 99.513L63.9914 99.5118Z" fill="#947346"/>
<path d="M88.5269 94.0741C85.488 94.8533 82.5906 96.1053 79.9404 97.7842C77.4197 99.4088 75.1377 101.377 73.1604 103.633C71.2763 105.814 69.5101 108.094 67.8694 110.464C66.2079 112.796 64.5638 115.147 62.7546 117.361C60.7686 119.77 58.5968 122.02 56.2592 124.089L55.3868 124.862L55.3454 124.755C58.2614 123.93 61.0522 122.714 63.6422 121.14C66.2291 119.574 68.5977 117.672 70.6863 115.484C72.8461 113.215 74.5972 110.634 76.2398 107.972C77.8825 105.31 79.4053 102.655 81.2992 100.198C83.0951 97.859 85.2116 95.7051 87.7833 94.2285C88.0939 94.0521 88.408 93.8849 88.7288 93.7256C88.9088 93.6559 88.9612 93.755 88.776 93.8477C86.0326 95.1977 83.7891 97.3409 81.9017 99.7151C79.9416 102.174 78.3621 104.899 76.7211 107.575C75.0802 110.251 73.3931 112.807 71.2836 115.088C67.1896 119.516 62.0195 122.807 56.2763 124.641C55.9324 124.749 55.5893 124.851 55.2449 124.949C55.1473 124.987 55.1238 124.908 55.2047 124.845C57.6468 122.743 59.9216 120.453 62.0082 117.997C63.8894 115.752 65.579 113.356 67.2794 110.97C68.9799 108.584 70.6461 106.263 72.5407 104.08C74.4662 101.823 76.6801 99.8306 79.1252 98.1524C81.7011 96.4222 84.5242 95.0926 87.4985 94.2088C87.8765 94.0976 88.2568 93.9925 88.6376 93.8978C88.6925 93.8766 88.7397 93.8899 88.7281 93.9506C88.7166 94.0112 88.5872 94.0578 88.5391 94.0694L88.5269 94.0741Z" fill="#947346"/>
<path d="M87.6089 94.5665C84.8672 95.5224 82.4525 97.2051 80.3512 99.181C78.2014 101.204 76.3759 103.529 74.6209 105.901C72.866 108.273 71.1289 110.674 69.1979 112.917C65.4626 117.257 61.1743 121.087 56.4427 124.31L55.5473 124.906C55.4298 124.983 55.2162 124.956 55.4132 124.831C60.2811 121.634 64.6946 117.794 68.5339 113.413C70.4781 111.186 72.2363 108.795 74.0011 106.412C75.7659 104.029 77.5552 101.682 79.6666 99.6145C81.6664 97.5892 84.0299 95.9594 86.6334 94.8106C86.966 94.6819 87.2985 94.5531 87.6311 94.4244C87.8385 94.3441 87.7429 94.5321 87.6094 94.5768L87.6089 94.5665Z" fill="#947346"/>
<path d="M128.733 116.394C126.062 114.506 123.393 112.614 120.645 110.836C117.943 109.059 115.129 107.457 112.222 106.04C110.82 105.356 109.364 104.79 107.869 104.347C106.382 103.931 104.85 103.698 103.307 103.655C100.187 103.552 97.0917 104.129 94.0689 104.839C90.8238 105.6 87.6073 106.525 84.3004 106.991C83.8878 107.048 83.4717 107.097 83.0574 107.142L83.2526 106.957C86.2293 107.533 89.2644 107.643 92.284 107.795C93.7853 107.867 95.2882 107.953 96.7813 108.112C98.2891 108.273 99.7874 108.514 101.27 108.833C104.229 109.461 107.119 110.348 110.017 111.238C112.979 112.157 115.943 113.053 118.955 113.801C122.102 114.581 125.276 115.249 128.451 115.903L129.603 116.159C129.721 116.184 129.468 116.363 129.38 116.344C126.204 115.691 123.029 115.037 119.874 114.281C116.832 113.555 113.833 112.694 110.834 111.772C107.945 110.878 105.056 109.966 102.106 109.279C100.647 108.937 99.1774 108.656 97.6927 108.455C96.208 108.253 94.6779 108.143 93.1689 108.06C90.1465 107.892 87.1157 107.829 84.1228 107.347C83.7503 107.291 83.3949 107.225 83.0311 107.155C82.8953 107.131 83.1819 106.974 83.2294 106.97C86.6043 106.626 89.888 105.72 93.1797 104.916C96.2125 104.178 99.3052 103.521 102.444 103.472C103.969 103.439 105.493 103.582 106.987 103.898C108.487 104.244 109.95 104.737 111.355 105.368C114.304 106.703 117.149 108.257 119.866 110.018C122.642 111.753 125.334 113.65 128.014 115.545L128.999 116.221C129.076 116.275 128.809 116.446 128.716 116.397L128.733 116.394Z" fill="#947346"/>
<path d="M127.887 115.949C125.092 114.972 122.37 113.796 119.743 112.429C117.102 111.108 114.492 109.738 111.739 108.644C108.963 107.499 106.034 106.772 103.046 106.488C99.9214 106.219 96.7857 106.411 93.6668 106.627C90.5479 106.844 87.4664 107.086 84.361 106.957C83.9759 106.941 83.5927 106.92 83.2102 106.893C83.1343 106.887 83.1989 106.809 83.2247 106.785C83.2814 106.734 83.3554 106.705 83.4322 106.705C86.5724 106.933 89.7209 106.729 92.8521 106.507C95.9832 106.286 99.056 106.059 102.162 106.226C103.704 106.301 105.238 106.499 106.748 106.818C108.169 107.133 109.566 107.548 110.93 108.058C113.697 109.138 116.4 110.375 119.028 111.761C121.68 113.091 124.339 114.425 127.12 115.445C127.462 115.569 127.807 115.688 128.152 115.801C128.217 115.825 127.982 116.004 127.885 115.971L127.887 115.949Z" fill="#947346"/>
</svg>
